<svg width="14" height="14" viewBox="0 0 14 14" fill="none" xmlns="http://www.w3.org/2000/svg">
<path d="M7.17473 1.18679C6.79122 1.57212 6.7927 2.19538 7.17803 2.57889L10.6313 6.01554L0.984374 6.01554C0.440704 6.01554 0 6.45624 0 6.99991C0 7.54358 0.440704 7.98429 0.984374 7.98429L10.6314 7.98429L7.17798 11.4209C6.79265 11.8044 6.79117 12.4277 7.17468 12.813C7.55824 13.1984 8.1815 13.1998 8.56683 12.8164L13.7104 7.69764L13.7113 7.6967C14.0956 7.31319 14.0968 6.68791 13.7113 6.30312L13.7104 6.30219L8.56688 1.18344C8.1816 0.80003 7.55829 0.801357 7.17473 1.18679Z" fill="white"/>
</svg>
