<svg width="180" height="181" viewBox="0 0 180 181" fill="none" xmlns="http://www.w3.org/2000/svg">
<circle cx="90" cy="90.217" r="90" fill="white"/>
<g clip-path="url(#clip0)">
<path d="M47.6009 107.999C47.4847 107.642 47.1678 107.389 46.7943 107.355L41.7001 106.892L39.6869 102.179C39.5382 101.833 39.2 101.609 38.8236 101.609C38.4471 101.609 38.1088 101.833 37.9611 102.179L35.9478 106.892L30.8528 107.355C30.4793 107.389 30.1631 107.642 30.0462 107.999C29.93 108.356 30.0373 108.748 30.3198 108.996L34.1706 112.373L33.0352 117.373C32.9521 117.741 33.0948 118.121 33.3999 118.342C33.5639 118.461 33.7566 118.52 33.9499 118.52C34.116 118.52 34.2823 118.476 34.4308 118.387L38.8236 115.761L43.2155 118.387C43.5377 118.58 43.9428 118.562 44.2472 118.342C44.5523 118.121 44.695 117.741 44.6119 117.373L43.4765 112.373L47.3273 108.996C47.6097 108.748 47.7171 108.357 47.6009 107.999Z" fill="#FFCD4D"/>
</g>
<g clip-path="url(#clip1)">
<path d="M68.1892 107.999C68.073 107.642 67.756 107.389 67.3825 107.355L62.2884 106.892L60.2751 102.179C60.1265 101.833 59.7883 101.609 59.4118 101.609C59.0354 101.609 58.697 101.833 58.5493 102.179L56.5361 106.892L51.4411 107.355C51.0676 107.389 50.7513 107.642 50.6344 107.999C50.5183 108.356 50.6256 108.748 50.908 108.996L54.7588 112.373L53.6234 117.373C53.5404 117.741 53.6831 118.121 53.9882 118.342C54.1522 118.461 54.3448 118.52 54.5382 118.52C54.7043 118.52 54.8706 118.476 55.0191 118.387L59.4118 115.761L63.8037 118.387C64.1259 118.58 64.531 118.562 64.8355 118.342C65.1405 118.121 65.2833 117.741 65.2002 117.373L64.0648 112.373L67.9156 108.996C68.1979 108.748 68.3054 108.357 68.1892 107.999Z" fill="#FFCD4D"/>
</g>
<g clip-path="url(#clip2)">
<path d="M88.7774 107.999C88.6612 107.642 88.3442 107.389 87.9707 107.355L82.8766 106.892L80.8633 102.179C80.7147 101.833 80.3765 101.609 80 101.609C79.6236 101.609 79.2852 101.833 79.1375 102.179L77.1243 106.892L72.0293 107.355C71.6558 107.389 71.3395 107.642 71.2226 107.999C71.1065 108.356 71.2138 108.748 71.4962 108.996L75.347 112.373L74.2116 117.373C74.1285 117.741 74.2713 118.121 74.5764 118.342C74.7403 118.461 74.933 118.52 75.1264 118.52C75.2925 118.52 75.4588 118.476 75.6073 118.387L80 115.761L84.3919 118.387C84.7141 118.58 85.1192 118.562 85.4237 118.342C85.7287 118.121 85.8715 117.741 85.7884 117.373L84.653 112.373L88.5038 108.996C88.7861 108.748 88.8936 108.357 88.7774 107.999Z" fill="#FFCD4D"/>
</g>
<g clip-path="url(#clip3)">
<path d="M109.366 107.999C109.249 107.642 108.932 107.389 108.559 107.355L103.465 106.892L101.452 102.179C101.303 101.833 100.965 101.609 100.588 101.609C100.212 101.609 99.8735 101.833 99.7258 102.179L97.7125 106.892L92.6175 107.355C92.244 107.389 91.9278 107.642 91.8109 107.999C91.6947 108.356 91.802 108.748 92.0845 108.996L95.9353 112.373L94.7999 117.373C94.7168 117.741 94.8595 118.121 95.1646 118.342C95.3286 118.461 95.5213 118.52 95.7146 118.52C95.8808 118.52 96.047 118.476 96.1955 118.387L100.588 115.761L104.98 118.387C105.302 118.58 105.707 118.562 106.012 118.342C106.317 118.121 106.46 117.741 106.377 117.373L105.241 112.373L109.092 108.996C109.374 108.748 109.482 108.357 109.366 107.999Z" fill="#FFCD4D"/>
</g>
<g clip-path="url(#clip4)">
<path d="M129.954 107.999C129.838 107.642 129.521 107.389 129.147 107.355L124.053 106.892L122.04 102.179C121.891 101.833 121.553 101.609 121.177 101.609C120.8 101.609 120.462 101.833 120.314 102.179L118.301 106.892L113.206 107.355C112.832 107.389 112.516 107.642 112.399 107.999C112.283 108.356 112.39 108.748 112.673 108.996L116.524 112.373L115.388 117.373C115.305 117.741 115.448 118.121 115.753 118.342C115.917 118.461 116.11 118.52 116.303 118.52C116.469 118.52 116.635 118.476 116.784 118.387L121.177 115.761L125.568 118.387C125.891 118.58 126.296 118.562 126.6 118.342C126.905 118.121 127.048 117.741 126.965 117.373L125.829 112.373L129.68 108.996C129.963 108.748 130.07 108.357 129.954 107.999Z" fill="#FFCD4D"/>
</g>
<rect opacity="0.25" x="30" y="58.0276" width="120" height="10.5882" rx="5.29412" fill="#3C86F4"/>
<rect opacity="0.25" x="30" y="75.6746" width="79.4118" height="10.5882" rx="5.29412" fill="#3C86F4"/>
<g clip-path="url(#clip5)">
<path d="M136.099 133.342L131.71 123.931C131.185 122.804 129.846 122.317 128.721 122.843C127.594 123.368 127.107 124.707 127.633 125.833L126.999 124.473C126.473 123.347 125.134 122.859 124.009 123.385C122.882 123.911 122.395 125.25 122.921 126.375L122.287 125.016C121.762 123.889 120.423 123.402 119.297 123.927C118.171 124.453 117.683 125.792 118.209 126.917L114.403 118.762C113.878 117.635 112.539 117.148 111.413 117.674C110.287 118.199 109.799 119.538 110.325 120.663L117.249 135.511L110.751 134.768L110.746 134.769C110.357 134.719 109.94 134.781 109.546 134.965C108.418 135.491 107.932 136.826 108.458 137.955C108.642 138.349 108.929 138.678 109.278 138.896L109.273 138.891L120.167 145.942C121.9 147.064 124.09 147.215 125.962 146.343L132.47 143.308C136.225 141.559 137.85 137.097 136.099 133.342Z" fill="white"/>
<path d="M116.352 136.229C116.082 136.13 115.849 135.929 115.718 135.647L108.744 120.693C107.958 119.006 108.69 116.994 110.376 116.207C112.062 115.421 114.075 116.154 114.861 117.84L121.201 131.434C121.463 131.998 121.22 132.667 120.656 132.93C120.093 133.193 119.423 132.949 119.161 132.386L112.822 118.791C112.559 118.228 111.889 117.984 111.326 118.247C110.765 118.509 110.52 119.181 110.782 119.742L117.755 134.696C118.017 135.259 117.774 135.929 117.21 136.192C116.93 136.322 116.623 136.327 116.352 136.229Z" fill="black"/>
<path d="M123.874 131.067C123.604 130.968 123.37 130.767 123.24 130.485L120.704 125.046C120.441 124.482 119.772 124.239 119.208 124.501C118.645 124.764 118.401 125.435 118.663 125.998C118.926 126.562 118.682 127.231 118.119 127.494C117.556 127.757 116.886 127.513 116.624 126.95C115.836 125.263 116.569 123.249 118.257 122.463C119.891 121.701 121.98 122.461 122.742 124.095L125.276 129.534C125.539 130.097 125.295 130.767 124.732 131.029C124.453 131.159 124.145 131.165 123.874 131.067Z" fill="black"/>
<path d="M127.952 129.164C127.682 129.065 127.449 128.864 127.318 128.582L125.417 124.504C125.163 123.96 124.467 123.707 123.921 123.96C123.648 124.087 123.442 124.312 123.339 124.594C123.237 124.876 123.25 125.182 123.378 125.453C123.641 126.016 123.397 126.685 122.835 126.95C122.272 127.211 121.6 126.968 121.337 126.407C120.956 125.589 120.916 124.673 121.225 123.824C121.533 122.977 122.153 122.301 122.97 121.92C124.656 121.134 126.669 121.866 127.455 123.552L129.357 127.63C129.619 128.194 129.376 128.863 128.812 129.126C128.532 129.257 128.223 129.262 127.952 129.164Z" fill="black"/>
<path d="M120.862 147.1C120.344 146.911 119.841 146.66 119.366 146.346L109.036 139.55C109.027 139.545 109.018 139.54 109.01 139.534C108.473 139.202 108.044 138.712 107.764 138.117C106.975 136.428 107.708 134.414 109.396 133.628C109.952 133.368 110.556 133.267 111.144 133.329C111.169 133.33 111.192 133.332 111.217 133.335L116.877 134.054C117.495 134.134 117.93 134.696 117.852 135.311C117.774 135.927 117.21 136.364 116.595 136.285L110.992 135.572C110.97 135.571 110.948 135.569 110.925 135.567C110.741 135.542 110.535 135.578 110.347 135.665C109.783 135.927 109.539 136.598 109.802 137.162C109.888 137.343 110.014 137.496 110.161 137.599C110.18 137.609 110.198 137.62 110.216 137.633L120.6 144.465C122.024 145.396 123.796 145.529 125.34 144.811L132.84 141.313C134.02 140.764 134.915 139.786 135.361 138.563C135.806 137.339 135.749 136.014 135.198 134.835L130.127 123.96C129.872 123.415 129.174 123.164 128.631 123.415C128.069 123.677 127.824 124.349 128.086 124.91C128.349 125.474 128.105 126.143 127.542 126.406C126.979 126.669 126.309 126.425 126.046 125.862C125.665 125.045 125.625 124.128 125.934 123.281C126.242 122.434 126.862 121.757 127.679 121.376C129.311 120.615 131.404 121.374 132.165 123.009L137.236 133.885C138.04 135.608 138.125 137.545 137.475 139.332C136.824 141.12 135.515 142.549 133.79 143.351L126.29 146.849C124.552 147.664 122.613 147.737 120.862 147.1Z" fill="black"/>
</g>
<defs>
<clipPath id="clip0">
<rect width="17.6471" height="17.6471" fill="white" transform="translate(30 101.23)"/>
</clipPath>
<clipPath id="clip1">
<rect width="17.6471" height="17.6471" fill="white" transform="translate(50.5883 101.23)"/>
</clipPath>
<clipPath id="clip2">
<rect width="17.6471" height="17.6471" fill="white" transform="translate(71.1765 101.23)"/>
</clipPath>
<clipPath id="clip3">
<rect width="17.6471" height="17.6471" fill="white" transform="translate(91.7647 101.23)"/>
</clipPath>
<clipPath id="clip4">
<rect width="17.6471" height="17.6471" fill="white" transform="translate(112.353 101.23)"/>
</clipPath>
<clipPath id="clip5">
<rect width="36" height="36" fill="white" transform="translate(110.835 109.666) rotate(20)"/>
</clipPath>
</defs>
</svg>
