<svg width="180" height="181" viewBox="0 0 180 181" fill="none" xmlns="http://www.w3.org/2000/svg">
<circle cx="90" cy="90.217" r="90" fill="white"/>
<mask id="mask0" mask-type="alpha" maskUnits="userSpaceOnUse" x="0" y="0" width="180" height="181">
<circle cx="90" cy="90.217" r="90" fill="white"/>
</mask>
<g mask="url(#mask0)">
<rect x="47.5371" y="21.9678" width="155.359" height="36" rx="8" fill="#0F2D53" fill-opacity="0.1"/>
<path d="M62.4702 35.2405V43.9678H63.9872V37.9593H64.0682L66.4801 43.9422H67.6136L70.0256 37.972H70.1065V43.9678H71.6236V35.2405H69.6889L67.098 41.5644H66.9957L64.4048 35.2405H62.4702ZM76.1747 44.0956C77.7003 44.0956 78.7486 43.3499 79.0213 42.2121L77.581 42.0502C77.3722 42.6041 76.8608 42.8939 76.196 42.8939C75.1989 42.8939 74.5384 42.2377 74.5256 41.1169H79.0852V40.6439C79.0852 38.347 77.7045 37.3371 76.0938 37.3371C74.2188 37.3371 72.9957 38.7135 72.9957 40.7334C72.9957 42.7874 74.2017 44.0956 76.1747 44.0956ZM74.5298 40.0771C74.5767 39.2419 75.1946 38.5388 76.1151 38.5388C77.0014 38.5388 77.598 39.1865 77.6065 40.0771H74.5298ZM79.8107 45.8683H81.3278V43.9678H85.6104V45.8683H87.1019V42.6979H86.0877V37.4223H81.3576L81.1701 39.7149C81.0465 41.1808 80.8846 42.2675 80.3306 42.6979H79.8107V45.8683ZM81.9158 42.6979C82.3292 42.0885 82.4826 41.0999 82.5934 39.7149L82.6957 38.6666H84.6133V42.6979H81.9158ZM89.7408 41.8797V37.4223H88.2536V43.9678H89.843L92.4553 39.5061V43.9678H93.9467V37.4223H92.3615L89.7408 41.8797ZM101.058 37.4223H99.5835V42.7021H97.0181V37.4223H95.5309V43.9678H100.551V46.0729H102.059V42.8172H101.058V37.4223ZM104.811 41.8797V37.4223H103.324V43.9678H104.913L107.526 39.5061V43.9678H109.017V37.4223H107.432L104.811 41.8797ZM112.088 37.4223H110.601V43.9678H112.088V41.3215H114.624V43.9678H116.107V37.4223H114.624V40.0558H112.088V37.4223ZM120.523 44.0956C122.168 44.0956 123.216 43.1198 123.327 41.7306H121.852C121.72 42.4337 121.213 42.8385 120.536 42.8385C119.572 42.8385 118.95 42.0331 118.95 40.695C118.95 39.374 119.585 38.5814 120.536 38.5814C121.277 38.5814 121.733 39.0587 121.852 39.6894H123.327C123.22 38.2703 122.112 37.3371 120.514 37.3371C118.597 37.3371 117.386 38.722 117.386 40.7206C117.386 42.7021 118.567 44.0956 120.523 44.0956ZM124.593 43.9678H126.136V41.5004H126.89L128.684 43.9678H130.551L128.1 40.6354L130.525 37.4223H128.667L126.699 40.0644H126.136V37.4223H124.593V43.9678ZM133.309 44.0999C134.336 44.0999 134.95 43.6183 135.231 43.0686H135.282V43.9678H136.765V39.5871C136.765 37.857 135.354 37.3371 134.106 37.3371C132.729 37.3371 131.673 37.9507 131.332 39.1439L132.772 39.3485C132.925 38.901 133.36 38.5175 134.114 38.5175C134.83 38.5175 135.222 38.884 135.222 39.5274V39.553C135.222 39.9962 134.758 40.0175 133.603 40.1411C132.333 40.2774 131.119 40.6567 131.119 42.1311C131.119 43.4181 132.06 44.0999 133.309 44.0999ZM133.71 42.9664C133.066 42.9664 132.606 42.6723 132.606 42.1056C132.606 41.5132 133.121 41.2661 133.812 41.1681C134.217 41.1127 135.026 41.0104 135.227 40.8485V41.6198C135.227 42.3485 134.638 42.9664 133.71 42.9664ZM142.185 43.9678H143.63V37.4223H140.788C139.185 37.4223 138.192 38.2448 138.197 39.5019C138.192 40.3286 138.644 40.955 139.424 41.2746L137.958 43.9678H139.475L140.817 41.5047H142.185V43.9678ZM142.185 40.3797H140.737C140.059 40.3797 139.684 40.026 139.688 39.536C139.684 39.0459 140.08 38.6752 140.788 38.6752H142.185V40.3797ZM148.16 43.9678H149.634V38.6879H152.2V43.9678H153.687V37.4223H148.16V43.9678ZM158.128 44.0956C160.046 44.0956 161.265 42.7448 161.265 40.7206C161.265 38.6922 160.046 37.3371 158.128 37.3371C156.211 37.3371 154.992 38.6922 154.992 40.7206C154.992 42.7448 156.211 44.0956 158.128 44.0956ZM158.137 42.8598C157.076 42.8598 156.556 41.9138 156.556 40.7164C156.556 39.5189 157.076 38.5601 158.137 38.5601C159.181 38.5601 159.701 39.5189 159.701 40.7164C159.701 41.9138 159.181 42.8598 158.137 42.8598ZM166.341 42.1737L164.449 37.4223H162.574V43.9678H164.061V39.5573L165.804 43.9678H166.882L168.685 39.5104V43.9678H170.159V37.4223H168.284L166.341 42.1737ZM174.57 44.0956C176.487 44.0956 177.706 42.7448 177.706 40.7206C177.706 38.6922 176.487 37.3371 174.57 37.3371C172.652 37.3371 171.433 38.6922 171.433 40.7206C171.433 42.7448 172.652 44.0956 174.57 44.0956ZM174.578 42.8598C173.517 42.8598 172.997 41.9138 172.997 40.7164C172.997 39.5189 173.517 38.5601 174.578 38.5601C175.622 38.5601 176.142 39.5189 176.142 40.7164C176.142 41.9138 175.622 42.8598 174.578 42.8598ZM188.846 42.7021H187.593V37.4223H186.106V42.6979H184.048V37.4223H182.561V42.6979H180.502V37.4223H179.015V43.9678H187.265V45.8428H188.718L188.846 42.7021ZM191.553 39.553V37.4223H190.066V43.9678H193.04C194.707 43.9678 195.665 43.0473 195.67 41.7604C195.665 40.4394 194.707 39.553 193.04 39.553H191.553ZM191.553 40.8186H193.04C193.71 40.8186 194.191 41.2149 194.191 41.7817C194.191 42.3229 193.71 42.7021 193.04 42.7021H191.553V40.8186Z" fill="black"/>
<rect x="47.5371" y="-23.0322" width="155.359" height="36" rx="8" fill="#0F2D53" fill-opacity="0.1"/>
<path d="M62.4702 -9.7595V-1.03223H63.9872V-7.04075H64.0682L66.4801 -1.05779H67.6136L70.0256 -7.02797H70.1065V-1.03223H71.6236V-9.7595H69.6889L67.098 -3.43564H66.9957L64.4048 -9.7595H62.4702ZM76.1747 -0.904386C77.7003 -0.904386 78.7486 -1.65012 79.0213 -2.78791L77.581 -2.94984C77.3722 -2.39586 76.8608 -2.10609 76.196 -2.10609C75.1989 -2.10609 74.5384 -2.76234 74.5256 -3.88308H79.0852V-4.35609C79.0852 -6.65297 77.7045 -7.66291 76.0938 -7.66291C74.2188 -7.66291 72.9957 -6.28649 72.9957 -4.2666C72.9957 -2.21262 74.2017 -0.904386 76.1747 -0.904386ZM74.5298 -4.92285C74.5767 -5.75808 75.1946 -6.4612 76.1151 -6.4612C77.0014 -6.4612 77.598 -5.81348 77.6065 -4.92285H74.5298ZM79.8107 0.868342H81.3278V-1.03223H85.6104V0.868342H87.1019V-2.30211H86.0877V-7.57768H81.3576L81.1701 -5.28507C81.0465 -3.81916 80.8846 -2.73251 80.3306 -2.30211H79.8107V0.868342ZM81.9158 -2.30211C82.3292 -2.91149 82.4826 -3.90012 82.5934 -5.28507L82.6957 -6.33336H84.6133V-2.30211H81.9158ZM89.7408 -3.12029V-7.57768H88.2536V-1.03223H89.843L92.4553 -5.49387V-1.03223H93.9467V-7.57768H92.3615L89.7408 -3.12029ZM101.058 -7.57768H99.5835V-2.29785H97.0181V-7.57768H95.5309V-1.03223H100.551V1.07289H102.059V-2.18279H101.058V-7.57768ZM104.811 -3.12029V-7.57768H103.324V-1.03223H104.913L107.526 -5.49387V-1.03223H109.017V-7.57768H107.432L104.811 -3.12029ZM112.088 -7.57768H110.601V-1.03223H112.088V-3.67853H114.624V-1.03223H116.107V-7.57768H114.624V-4.94416H112.088V-7.57768ZM120.523 -0.904386C122.168 -0.904386 123.216 -1.88024 123.327 -3.26944H121.852C121.72 -2.56632 121.213 -2.16149 120.536 -2.16149C119.572 -2.16149 118.95 -2.96689 118.95 -4.30495C118.95 -5.62598 119.585 -6.41859 120.536 -6.41859C121.277 -6.41859 121.733 -5.94132 121.852 -5.31064H123.327C123.22 -6.72967 122.112 -7.66291 120.514 -7.66291C118.597 -7.66291 117.386 -6.27797 117.386 -4.27939C117.386 -2.29785 118.567 -0.904386 120.523 -0.904386ZM124.593 -1.03223H126.136V-3.49956H126.89L128.684 -1.03223H130.551L128.1 -4.36461L130.525 -7.57768H128.667L126.699 -4.93564H126.136V-7.57768H124.593V-1.03223ZM133.309 -0.900124C134.336 -0.900124 134.95 -1.38166 135.231 -1.93137H135.282V-1.03223H136.765V-5.41291C136.765 -7.14302 135.354 -7.66291 134.106 -7.66291C132.729 -7.66291 131.673 -7.04927 131.332 -5.85609L132.772 -5.65154C132.925 -6.09899 133.36 -6.48251 134.114 -6.48251C134.83 -6.48251 135.222 -6.11603 135.222 -5.47257V-5.447C135.222 -5.00382 134.758 -4.98251 133.603 -4.85893C132.333 -4.72257 131.119 -4.34331 131.119 -2.86887C131.119 -1.58194 132.06 -0.900124 133.309 -0.900124ZM133.71 -2.03365C133.066 -2.03365 132.606 -2.32768 132.606 -2.89444C132.606 -3.48677 133.121 -3.73393 133.812 -3.83194C134.217 -3.88734 135.026 -3.98961 135.227 -4.15154V-3.38024C135.227 -2.65154 134.638 -2.03365 133.71 -2.03365ZM142.185 -1.03223H143.63V-7.57768H140.788C139.185 -7.57768 138.192 -6.75524 138.197 -5.49814C138.192 -4.67143 138.644 -4.04501 139.424 -3.72541L137.958 -1.03223H139.475L140.817 -3.49529H142.185V-1.03223ZM142.185 -4.62029H140.737C140.059 -4.62029 139.684 -4.97399 139.688 -5.46404C139.684 -5.9541 140.08 -6.32484 140.788 -6.32484H142.185V-4.62029ZM148.16 -1.03223H149.634V-6.31206H152.2V-1.03223H153.687V-7.57768H148.16V-1.03223ZM158.128 -0.904386C160.046 -0.904386 161.265 -2.25524 161.265 -4.27939C161.265 -6.30779 160.046 -7.66291 158.128 -7.66291C156.211 -7.66291 154.992 -6.30779 154.992 -4.27939C154.992 -2.25524 156.211 -0.904386 158.128 -0.904386ZM158.137 -2.14018C157.076 -2.14018 156.556 -3.0862 156.556 -4.28365C156.556 -5.48109 157.076 -6.4399 158.137 -6.4399C159.181 -6.4399 159.701 -5.48109 159.701 -4.28365C159.701 -3.0862 159.181 -2.14018 158.137 -2.14018ZM166.341 -2.82626L164.449 -7.57768H162.574V-1.03223H164.061V-5.44274L165.804 -1.03223H166.882L168.685 -5.48961V-1.03223H170.159V-7.57768H168.284L166.341 -2.82626ZM174.57 -0.904386C176.487 -0.904386 177.706 -2.25524 177.706 -4.27939C177.706 -6.30779 176.487 -7.66291 174.57 -7.66291C172.652 -7.66291 171.433 -6.30779 171.433 -4.27939C171.433 -2.25524 172.652 -0.904386 174.57 -0.904386ZM174.578 -2.14018C173.517 -2.14018 172.997 -3.0862 172.997 -4.28365C172.997 -5.48109 173.517 -6.4399 174.578 -6.4399C175.622 -6.4399 176.142 -5.48109 176.142 -4.28365C176.142 -3.0862 175.622 -2.14018 174.578 -2.14018ZM188.846 -2.29785H187.593V-7.57768H186.106V-2.30211H184.048V-7.57768H182.561V-2.30211H180.502V-7.57768H179.015V-1.03223H187.265V0.842773H188.718L188.846 -2.29785ZM191.553 -5.447V-7.57768H190.066V-1.03223H193.04C194.707 -1.03223 195.665 -1.95268 195.67 -3.23961C195.665 -4.56064 194.707 -5.447 193.04 -5.447H191.553ZM191.553 -4.18137H193.04C193.71 -4.18137 194.191 -3.78507 194.191 -3.21831C194.191 -2.67711 193.71 -2.29785 193.04 -2.29785H191.553V-4.18137Z" fill="black"/>
<rect x="47.5371" y="66.9678" width="155.359" height="36" rx="8" fill="#0F2D53" fill-opacity="0.1"/>
<path d="M62.4702 80.2405V88.9678H63.9872V82.9593H64.0682L66.4801 88.9422H67.6136L70.0256 82.972H70.1065V88.9678H71.6236V80.2405H69.6889L67.098 86.5644H66.9957L64.4048 80.2405H62.4702ZM76.1321 89.0956C78.0497 89.0956 79.2685 87.7448 79.2685 85.7206C79.2685 83.6922 78.0497 82.3371 76.1321 82.3371C74.2145 82.3371 72.9957 83.6922 72.9957 85.7206C72.9957 87.7448 74.2145 89.0956 76.1321 89.0956ZM76.1406 87.8598C75.0795 87.8598 74.5597 86.9138 74.5597 85.7164C74.5597 84.5189 75.0795 83.5601 76.1406 83.5601C77.1847 83.5601 77.7045 84.5189 77.7045 85.7164C77.7045 86.9138 77.1847 87.8598 76.1406 87.8598ZM83.4329 89.0956C85.0778 89.0956 86.1261 88.1198 86.2369 86.7306H84.7624C84.6303 87.4337 84.1232 87.8385 83.4457 87.8385C82.4826 87.8385 81.8604 87.0331 81.8604 85.695C81.8604 84.374 82.4954 83.5814 83.4457 83.5814C84.1871 83.5814 84.6431 84.0587 84.7624 84.6894H86.2369C86.1303 83.2703 85.0224 82.3371 83.4244 82.3371C81.5067 82.3371 80.2965 83.722 80.2965 85.7206C80.2965 87.7021 81.4769 89.0956 83.4329 89.0956ZM87.5036 88.9678H89.0462V86.5004H89.8004L91.5945 88.9678H93.4609L91.0107 85.6354L93.4354 82.4223H91.5774L89.6087 85.0644H89.0462V82.4223H87.5036V88.9678ZM94.3356 88.9678H97.506C99.0401 88.9678 99.918 88.2732 99.918 87.1908C99.918 86.2746 99.2063 85.6354 98.1793 85.5459C99.0529 85.384 99.5984 84.9195 99.5984 84.1823C99.5984 83.0786 98.631 82.4223 97.0842 82.4223H94.3356V88.9678ZM95.7802 87.7533V86.1297H97.506C98.0728 86.1297 98.418 86.4578 98.418 86.999C98.418 87.4678 98.0728 87.7533 97.506 87.7533H95.7802ZM95.7802 85.1325V83.6581H97.0842C97.7276 83.6581 98.1197 83.9308 98.1197 84.3783C98.1197 84.847 97.7404 85.1325 97.114 85.1325H95.7802ZM103.075 89.0999C104.102 89.0999 104.715 88.6183 104.996 88.0686H105.048V88.9678H106.531V84.5871C106.531 82.857 105.12 82.3371 103.871 82.3371C102.495 82.3371 101.438 82.9507 101.097 84.1439L102.538 84.3485C102.691 83.901 103.126 83.5175 103.88 83.5175C104.596 83.5175 104.988 83.884 104.988 84.5274V84.553C104.988 84.9962 104.523 85.0175 103.369 85.1411C102.099 85.2774 100.884 85.6567 100.884 87.1311C100.884 88.4181 101.826 89.0999 103.075 89.0999ZM103.475 87.9664C102.832 87.9664 102.371 87.6723 102.371 87.1056C102.371 86.5132 102.887 86.2661 103.577 86.1681C103.982 86.1127 104.792 86.0104 104.992 85.8485V86.6198C104.992 87.3485 104.404 87.9664 103.475 87.9664ZM109.893 87.7746H108.529L108.499 88.2519C108.427 89.4067 108.124 90.5828 108.001 91.0985H109.04C109.245 90.5615 109.718 89.3172 109.837 88.2433L109.893 87.7746ZM115.287 91.4223C116.488 91.4223 117.183 90.8044 117.554 89.7604L120.183 82.4308L118.534 82.4223L117.021 87.3655H116.953L115.444 82.4223H113.808L116.181 89.1041L116.049 89.4578C115.764 90.2036 115.312 90.2547 114.639 90.0587L114.281 91.2604C114.49 91.3456 114.865 91.4223 115.287 91.4223ZM120.275 88.9678H120.752C122.158 88.9678 122.793 87.9791 122.895 85.7973L122.998 83.6879H124.877V88.9678H126.368V82.4223H121.596L121.48 85.32C121.408 87.1567 121.169 87.6979 120.492 87.6979H120.266L120.275 88.9678ZM128.872 89.0615C129.375 89.0615 129.805 88.6439 129.809 88.124C129.805 87.6127 129.375 87.195 128.872 87.195C128.352 87.195 127.93 87.6127 127.934 88.124C127.93 88.6439 128.352 89.0615 128.872 89.0615ZM139.789 80.2405H134.177V88.9678H135.758V81.5658H139.789V80.2405ZM142.051 89.0999C143.078 89.0999 143.692 88.6183 143.973 88.0686H144.024V88.9678H145.507V84.5871C145.507 82.857 144.097 82.3371 142.848 82.3371C141.472 82.3371 140.415 82.9507 140.074 84.1439L141.514 84.3485C141.668 83.901 142.102 83.5175 142.857 83.5175C143.572 83.5175 143.964 83.884 143.964 84.5274V84.553C143.964 84.9962 143.5 85.0175 142.345 85.1411C141.075 85.2774 139.861 85.6567 139.861 87.1311C139.861 88.4181 140.803 89.0999 142.051 89.0999ZM142.452 87.9664C141.808 87.9664 141.348 87.6723 141.348 87.1056C141.348 86.5132 141.864 86.2661 142.554 86.1681C142.959 86.1127 143.768 86.0104 143.969 85.8485V86.6198C143.969 87.3485 143.381 87.9664 142.452 87.9664ZM151.388 82.4223H147.058V88.9678H148.567V83.6879H151.388V82.4223ZM154.239 89.0999C155.266 89.0999 155.879 88.6183 156.161 88.0686H156.212V88.9678H157.695V84.5871C157.695 82.857 156.284 82.3371 155.036 82.3371C153.659 82.3371 152.602 82.9507 152.261 84.1439L153.702 84.3485C153.855 83.901 154.29 83.5175 155.044 83.5175C155.76 83.5175 156.152 83.884 156.152 84.5274V84.553C156.152 84.9962 155.688 85.0175 154.533 85.1411C153.263 85.2774 152.048 85.6567 152.048 87.1311C152.048 88.4181 152.99 89.0999 154.239 89.0999ZM154.639 87.9664C153.996 87.9664 153.536 87.6723 153.536 87.1056C153.536 86.5132 154.051 86.2661 154.741 86.1681C155.146 86.1127 155.956 86.0104 156.156 85.8485V86.6198C156.156 87.3485 155.568 87.9664 154.639 87.9664ZM159.246 91.4223H160.788V87.9365H160.852C161.095 88.4138 161.602 89.0828 162.727 89.0828C164.27 89.0828 165.425 87.8598 165.425 85.7036C165.425 83.5218 164.236 82.3371 162.723 82.3371C161.568 82.3371 161.087 83.0317 160.852 83.5047H160.763V82.4223H159.246V91.4223ZM160.759 85.695C160.759 84.4252 161.304 83.6027 162.297 83.6027C163.324 83.6027 163.852 84.4763 163.852 85.695C163.852 86.9223 163.315 87.8172 162.297 87.8172C161.312 87.8172 160.759 86.9649 160.759 85.695ZM168.233 86.8797V82.4223H166.746V88.9678H168.335L170.947 84.5061V88.9678H172.439V82.4223H170.854L168.233 86.8797ZM175.51 82.4223H174.023V88.9678H175.51V86.3215H178.046V88.9678H179.529V82.4223H178.046V85.0558H175.51V82.4223ZM182.973 89.0999C184 89.0999 184.614 88.6183 184.895 88.0686H184.946V88.9678H186.429V84.5871C186.429 82.857 185.018 82.3371 183.77 82.3371C182.393 82.3371 181.337 82.9507 180.996 84.1439L182.436 84.3485C182.589 83.901 183.024 83.5175 183.778 83.5175C184.494 83.5175 184.886 83.884 184.886 84.5274V84.553C184.886 84.9962 184.422 85.0175 183.267 85.1411C181.997 85.2774 180.783 85.6567 180.783 87.1311C180.783 88.4181 181.724 89.0999 182.973 89.0999ZM183.374 87.9664C182.73 87.9664 182.27 87.6723 182.27 87.1056C182.27 86.5132 182.786 86.2661 183.476 86.1681C183.881 86.1127 184.69 86.0104 184.891 85.8485V86.6198C184.891 87.3485 184.303 87.9664 183.374 87.9664Z" fill="black"/>
<rect x="47.5371" y="111.968" width="155.359" height="36" rx="8" fill="#3C86F4"/>
<path d="M80.7101 129.604C80.7101 126.749 78.9374 125.121 76.6234 125.121C74.2967 125.121 72.5368 126.749 72.5368 129.604C72.5368 132.446 74.2967 134.087 76.6234 134.087C78.9374 134.087 80.7101 132.459 80.7101 129.604ZM78.8393 129.604C78.8393 131.454 77.9615 132.455 76.6234 132.455C75.2811 132.455 74.4075 131.454 74.4075 129.604C74.4075 127.755 75.2811 126.753 76.6234 126.753C77.9615 126.753 78.8393 127.755 78.8393 129.604ZM81.7019 128.85H83.7942V133.968H85.5244V128.85H87.6337V127.422H81.7019V128.85ZM88.7342 133.968H90.4473V128.85H92.7229V133.968H94.4572V127.422H88.7342V133.968ZM95.9061 136.422H97.7215V132.919H97.7768C98.0283 133.465 98.578 134.074 99.6348 134.074C101.126 134.074 102.29 132.894 102.29 130.704C102.29 128.454 101.075 127.337 99.6391 127.337C98.5439 127.337 98.0197 127.989 97.7768 128.522H97.6959V127.422H95.9061V136.422ZM97.6831 130.695C97.6831 129.527 98.1774 128.782 99.0595 128.782C99.9587 128.782 100.436 129.562 100.436 130.695C100.436 131.837 99.9501 132.63 99.0595 132.63C98.1859 132.63 97.6831 131.863 97.6831 130.695ZM105.366 134.091C106.334 134.091 106.96 133.669 107.28 133.06H107.331V133.968H109.052V129.553C109.052 127.993 107.731 127.337 106.274 127.337C104.706 127.337 103.675 128.087 103.423 129.28L105.102 129.417C105.226 128.982 105.613 128.662 106.265 128.662C106.883 128.662 107.237 128.973 107.237 129.51V129.536C107.237 129.958 106.79 130.013 105.652 130.124C104.356 130.243 103.193 130.678 103.193 132.14C103.193 133.435 104.118 134.091 105.366 134.091ZM105.886 132.839C105.328 132.839 104.927 132.579 104.927 132.08C104.927 131.569 105.349 131.317 105.988 131.228C106.385 131.172 107.033 131.079 107.25 130.934V131.628C107.25 132.314 106.683 132.839 105.886 132.839ZM110.461 133.968H113.682C115.319 133.968 116.231 133.299 116.231 132.182C116.231 131.321 115.549 130.64 114.373 130.554C115.31 130.392 115.868 129.898 115.868 129.191C115.868 128.057 114.867 127.422 113.252 127.422H110.461V133.968ZM112.153 132.608V131.181H113.682C114.185 131.181 114.492 131.466 114.492 131.931C114.492 132.353 114.185 132.608 113.682 132.608H112.153ZM112.153 130.116V128.812H113.252C113.814 128.812 114.16 129.054 114.16 129.455C114.16 129.868 113.832 130.116 113.29 130.116H112.153ZM119.109 131.573V127.422H117.375V133.968H119.177L121.525 129.804V133.968H123.256V127.422H121.466L119.109 131.573ZM124.065 128.85H126.158V133.968H127.888V128.85H129.997V127.422H124.065V128.85ZM132.832 129.434V127.422H131.098V133.968H134.191C135.926 133.968 136.944 133.06 136.948 131.709C136.944 130.333 135.926 129.434 134.191 129.434H132.832ZM132.832 130.861H134.191C134.801 130.861 135.231 131.219 135.24 131.722C135.231 132.199 134.801 132.54 134.191 132.54H132.832V130.861ZM140.593 132.114C140.64 133.392 141.795 134.096 143.367 134.096C144.978 134.096 146.133 133.371 146.133 132.152C146.133 131.241 145.481 130.669 144.68 130.618V130.55C145.493 130.354 145.975 129.877 145.975 129.182C145.975 128.04 144.986 127.337 143.384 127.337C141.918 127.337 140.78 128.079 140.768 129.255H142.519C142.532 128.871 142.924 128.603 143.465 128.603C144.002 128.603 144.339 128.901 144.339 129.34C144.339 129.736 144.023 130.026 143.461 130.026H142.519V131.215H143.461C144.028 131.215 144.407 131.539 144.407 132.012C144.407 132.532 143.951 132.813 143.359 132.813C142.775 132.813 142.37 132.549 142.353 132.114H140.593ZM149.112 134.091C150.08 134.091 150.706 133.669 151.026 133.06H151.077V133.968H152.799V129.553C152.799 127.993 151.477 127.337 150.02 127.337C148.452 127.337 147.421 128.087 147.169 129.28L148.848 129.417C148.972 128.982 149.36 128.662 150.012 128.662C150.629 128.662 150.983 128.973 150.983 129.51V129.536C150.983 129.958 150.536 130.013 149.398 130.124C148.102 130.243 146.939 130.678 146.939 132.14C146.939 133.435 147.864 134.091 149.112 134.091ZM149.632 132.839C149.074 132.839 148.674 132.579 148.674 132.08C148.674 131.569 149.095 131.317 149.735 131.228C150.131 131.172 150.779 131.079 150.996 130.934V131.628C150.996 132.314 150.429 132.839 149.632 132.839ZM158.042 133.968H159.734V127.422H156.815C155.119 127.422 154.062 128.292 154.071 129.57C154.066 130.367 154.514 130.989 155.294 131.33L153.883 133.968H155.622L156.879 131.607H158.042V133.968ZM158.042 130.38H156.798C156.137 130.38 155.792 130.047 155.801 129.621C155.792 129.204 156.146 128.846 156.815 128.846H158.042V130.38ZM161.144 133.968H164.366C166.002 133.968 166.914 133.299 166.914 132.182C166.914 131.321 166.232 130.64 165.056 130.554C165.994 130.392 166.552 129.898 166.552 129.191C166.552 128.057 165.551 127.422 163.936 127.422H161.144V133.968ZM162.836 132.608V131.181H164.366C164.869 131.181 165.176 131.466 165.176 131.931C165.176 132.353 164.869 132.608 164.366 132.608H162.836ZM162.836 130.116V128.812H163.936C164.498 128.812 164.843 129.054 164.843 129.455C164.843 129.868 164.515 130.116 163.974 130.116H162.836ZM168.058 133.968H169.874V131.645H170.551L172.166 133.968H174.323L171.983 130.669L174.297 127.422H172.166L170.385 129.962H169.874V127.422H168.058V133.968ZM176.316 136.422C177.667 136.422 178.383 135.732 178.753 134.675L181.297 127.431L179.376 127.422L178.008 132.229H177.939L176.584 127.422H174.675L177.023 134.155L176.917 134.432C176.678 135.046 176.222 135.076 175.583 134.88L175.174 136.235C175.434 136.346 175.856 136.422 176.316 136.422Z" fill="white"/>
<g clip-path="url(#clip0)">
<path d="M125.971 152.23L121.583 142.819C121.058 141.692 119.719 141.205 118.593 141.731C117.467 142.256 116.979 143.595 117.505 144.72L116.871 143.361C116.346 142.234 115.007 141.747 113.882 142.273C112.755 142.798 112.268 144.137 112.794 145.262L112.16 143.903C111.634 142.777 110.295 142.289 109.17 142.815C108.044 143.34 107.556 144.68 108.082 145.805L104.276 137.65C103.75 136.523 102.411 136.036 101.286 136.561C100.159 137.087 99.6721 138.426 100.198 139.551L107.122 154.399L100.624 153.656L100.619 153.657C100.23 153.607 99.8132 153.669 99.4191 153.853C98.2905 154.379 97.8047 155.714 98.3309 156.842C98.5147 157.236 98.8018 157.566 99.1503 157.784L99.1457 157.779L110.039 164.829C111.773 165.952 113.962 166.103 115.834 165.231L122.342 162.196C126.098 160.447 127.722 155.984 125.971 152.23Z" fill="white"/>
<path d="M106.225 155.117C105.955 155.018 105.721 154.817 105.591 154.535L98.6166 139.58C97.8303 137.894 98.5629 135.881 100.249 135.095C101.935 134.309 103.948 135.042 104.734 136.728L111.073 150.322C111.336 150.885 111.092 151.555 110.529 151.818C109.966 152.08 109.296 151.837 109.034 151.273L102.694 137.679C102.432 137.115 101.762 136.872 101.199 137.134C100.637 137.396 100.393 138.069 100.654 138.63L107.628 153.584C107.89 154.147 107.647 154.817 107.083 155.079C106.803 155.21 106.496 155.215 106.225 155.117Z" fill="black"/>
<path d="M113.747 149.954C113.476 149.856 113.243 149.654 113.113 149.372L110.576 143.933C110.314 143.37 109.644 143.126 109.081 143.389C108.518 143.652 108.273 144.323 108.536 144.886C108.799 145.449 108.555 146.119 107.992 146.382C107.428 146.644 106.759 146.401 106.496 145.837C105.709 144.151 106.442 142.136 108.129 141.351C109.763 140.589 111.852 141.349 112.614 142.983L115.149 148.422C115.412 148.985 115.168 149.654 114.605 149.917C114.326 150.047 114.018 150.053 113.747 149.954Z" fill="black"/>
<path d="M117.825 148.052C117.555 147.953 117.321 147.752 117.191 147.47L115.289 143.392C115.036 142.848 114.339 142.594 113.794 142.848C113.521 142.975 113.315 143.2 113.212 143.482C113.109 143.764 113.122 144.07 113.251 144.34C113.513 144.904 113.27 145.573 112.707 145.838C112.144 146.099 111.473 145.856 111.21 145.294C110.829 144.477 110.789 143.561 111.098 142.712C111.406 141.865 112.026 141.189 112.843 140.808C114.529 140.021 116.542 140.754 117.328 142.44L119.229 146.518C119.492 147.081 119.248 147.751 118.685 148.013C118.404 148.144 118.096 148.15 117.825 148.052Z" fill="black"/>
<path d="M110.735 165.988C110.216 165.799 109.714 165.547 109.239 165.234L98.909 158.438C98.8996 158.433 98.8902 158.428 98.8828 158.422C98.3462 158.09 97.9164 157.599 97.6366 157.004C96.848 155.316 97.5811 153.302 99.2686 152.516C99.8248 152.255 100.428 152.154 101.017 152.217C101.042 152.218 101.065 152.22 101.09 152.223L106.75 152.942C107.368 153.021 107.803 153.584 107.725 154.198C107.647 154.815 107.083 155.251 106.468 155.173L100.864 154.46C100.843 154.458 100.821 154.457 100.798 154.455C100.614 154.429 100.407 154.466 100.219 154.552C99.6561 154.815 99.4119 155.486 99.6746 156.049C99.7603 156.231 99.8866 156.383 100.034 156.487C100.053 156.497 100.071 156.508 100.089 156.521L110.473 163.353C111.896 164.284 113.669 164.417 115.213 163.698L122.712 160.201C123.892 159.652 124.788 158.674 125.233 157.45C125.679 156.227 125.621 154.902 125.07 153.723L120 142.847C119.745 142.303 119.046 142.052 118.503 142.303C117.942 142.564 117.697 143.237 117.959 143.798C118.222 144.361 117.978 145.031 117.415 145.294C116.851 145.556 116.182 145.313 115.919 144.749C115.538 143.932 115.498 143.016 115.806 142.169C116.115 141.322 116.734 140.645 117.552 140.264C119.184 139.503 121.277 140.262 122.038 141.897L127.108 152.773C127.913 154.496 127.998 156.433 127.348 158.22C126.697 160.007 125.388 161.437 123.663 162.239L116.163 165.736C114.425 166.552 112.486 166.625 110.735 165.988Z" fill="black"/>
</g>
</g>
<defs>
<clipPath id="clip0">
<rect width="36" height="36" fill="white" transform="translate(100.708 128.553) rotate(20)"/>
</clipPath>
</defs>
</svg>
