<svg width="180" height="181" viewBox="0 0 180 181" fill="none" xmlns="http://www.w3.org/2000/svg">
<circle cx="90.0001" cy="90.217" r="90" fill="white"/>
<g clip-path="url(#clip0)">
<path d="M69.384 105.836C68.7701 105.836 68.2725 106.334 68.2725 106.948V108.814C68.2725 109.428 68.7701 109.926 69.384 109.926C69.9978 109.926 70.4954 109.428 70.4954 108.814V106.948C70.4954 106.334 69.9978 105.836 69.384 105.836Z" fill="#3C86F4"/>
<path d="M74.2368 105.836C73.6229 105.836 73.1253 106.334 73.1253 106.948V108.814C73.1253 109.428 73.6229 109.926 74.2368 109.926C74.8506 109.926 75.3482 109.428 75.3482 108.814V106.948C75.3482 106.334 74.8506 105.836 74.2368 105.836Z" fill="#3C86F4"/>
<path d="M69.9562 116.136C68.2214 116.043 66.9719 115.349 66.2426 114.072C65.9381 113.54 65.2591 113.354 64.726 113.659C64.193 113.963 64.0079 114.642 64.3124 115.175C65.4247 117.122 67.3354 118.222 69.8375 118.355C69.8576 118.356 69.8777 118.357 69.8977 118.357C70.4842 118.357 70.975 117.898 71.0066 117.305C71.0395 116.692 70.5692 116.168 69.9562 116.136Z" fill="#3C86F4"/>
<path d="M56.8436 107.201C57.7728 106.844 58.8279 107.066 59.5333 107.768C59.7627 108.001 60.0734 108.113 60.3791 108.099C63.0612 108.07 65.2471 105.933 65.3526 103.27H74.4864C80.5054 103.27 85.4022 98.3729 85.4022 92.3539C85.4022 91.7401 84.9046 91.2424 84.2908 91.2424H66.2504C60.2314 91.2424 55.3345 96.1393 55.3345 102.158C55.3345 102.772 55.8322 103.27 56.446 103.27C57.0598 103.27 57.5574 102.772 57.5574 102.158C57.5574 97.3651 61.457 93.4653 66.2504 93.4653H83.1085C82.561 97.7355 78.9031 101.047 74.4864 101.047H64.2449C63.6311 101.047 63.1334 101.544 63.1334 102.158V103.068C63.1334 104.483 62.0805 105.658 60.7166 105.849C59.4103 104.805 57.6317 104.517 56.0491 105.125C55.4282 105.361 54.8706 105.724 54.3925 106.202C53.4945 107.099 53.0001 108.292 53.0001 109.561C53.0001 110.83 53.4945 112.023 54.3919 112.92C54.7379 113.265 55.1264 113.551 55.5519 113.774C56.6503 119.559 61.7772 123.847 67.7294 123.847C74.5654 123.847 80.1268 118.286 80.1268 111.451V105.105C80.1268 104.492 79.6292 103.994 79.0154 103.994C78.4016 103.994 77.904 104.492 77.904 105.105V111.451C77.904 117.061 73.3397 121.624 67.7295 121.624C62.6705 121.624 58.3383 117.851 57.6524 112.848C57.5957 112.435 57.3127 112.088 56.9196 111.95C56.5584 111.823 56.237 111.62 55.9634 111.347C55.486 110.87 55.2231 110.236 55.2231 109.561C55.2231 108.886 55.486 108.252 55.9638 107.774C56.2196 107.519 56.5149 107.326 56.8436 107.201Z" fill="#3C86F4"/>
<path d="M94.0663 78.6479C93.4523 78.6479 92.9548 79.1456 92.9548 79.7594C92.9548 80.9088 92.0196 81.8441 90.8701 81.8441H83.8833C83.5665 81.8441 83.2648 81.9794 83.0539 82.2158L79.8402 85.819V82.9557C79.8402 82.3419 79.3426 81.8442 78.7288 81.8442H63.0304C61.8808 81.8442 60.9457 80.909 60.9457 79.7595V65.7014C60.9457 64.5518 61.8809 63.6167 63.0304 63.6167H84.2857C84.8995 63.6167 85.3972 63.1191 85.3972 62.5052C85.3972 61.8914 84.8995 61.3938 84.2857 61.3938H63.0304C60.655 61.3938 58.7226 63.3263 58.7226 65.7016V79.7595C58.7226 82.1348 60.6552 84.0673 63.0304 84.0673H77.6171V88.7352C77.6171 89.1963 77.9018 89.6096 78.3328 89.7738C78.4617 89.823 78.5957 89.8467 78.7285 89.8467C79.0392 89.8467 79.343 89.7161 79.5582 89.4749L84.3814 84.0671H90.8703C93.2455 84.0671 95.178 82.1346 95.178 79.7594C95.1779 79.1456 94.6801 78.6479 94.0663 78.6479Z" fill="#3C86F4"/>
<path d="M119.111 54.2808H116.584C115.97 54.2808 115.472 54.7784 115.472 55.3922C115.472 56.006 115.97 56.5037 116.584 56.5037H119.111C120.261 56.5037 121.196 57.4389 121.196 58.5884V72.6463C121.196 73.7958 120.26 74.7311 119.111 74.7311H103.413C102.799 74.7311 102.301 75.2287 102.301 75.8425V78.7058L99.0876 75.1027C98.8766 74.8663 98.5748 74.7309 98.258 74.7309H91.2712C90.1216 74.7309 89.1865 73.7957 89.1865 72.6462V58.5884C89.1865 57.4388 90.1216 56.5037 91.2712 56.5037H113.027C113.641 56.5037 114.139 56.006 114.139 55.3922C114.139 54.7784 113.641 54.2808 113.027 54.2808H91.2711C88.8958 54.2808 86.9633 56.2133 86.9633 58.5885V72.6465C86.9633 75.0217 88.8958 76.9541 91.2711 76.9541H97.76L102.583 82.3619C102.798 82.603 103.102 82.7336 103.413 82.7336C103.546 82.7336 103.68 82.7098 103.809 82.6606C104.24 82.4964 104.524 82.0831 104.524 81.622V76.9541H119.111C121.486 76.9541 123.419 75.0216 123.419 72.6463V58.5884C123.419 56.213 121.486 54.2808 119.111 54.2808Z" fill="#3C86F4"/>
<path d="M116.528 59.9116H103.996C103.382 59.9116 102.884 60.4092 102.884 61.0231C102.884 61.6369 103.382 62.1345 103.996 62.1345H116.528C117.142 62.1345 117.639 61.6369 117.639 61.0231C117.639 60.4092 117.142 59.9116 116.528 59.9116Z" fill="#3C86F4"/>
<path d="M100.29 59.9116H93.8544C93.2405 59.9116 92.743 60.4092 92.743 61.0231C92.743 61.6369 93.2405 62.1345 93.8544 62.1345H100.29C100.904 62.1345 101.402 61.6369 101.402 61.0231C101.402 60.4092 100.904 59.9116 100.29 59.9116Z" fill="#3C86F4"/>
<path d="M116.528 64.4685H112.665C112.051 64.4685 111.554 64.9661 111.554 65.58C111.554 66.1938 112.051 66.6914 112.665 66.6914H116.528C117.142 66.6914 117.639 66.1938 117.639 65.58C117.639 64.9661 117.142 64.4685 116.528 64.4685Z" fill="#3C86F4"/>
<path d="M108.96 64.4685H93.8544C93.2405 64.4685 92.743 64.9661 92.743 65.58C92.743 66.1938 93.2405 66.6914 93.8544 66.6914H108.96C109.574 66.6914 110.071 66.1938 110.071 65.58C110.071 64.9661 109.574 64.4685 108.96 64.4685Z" fill="#3C86F4"/>
<path d="M109.627 69.0256H93.8544C93.2405 69.0256 92.743 69.5233 92.743 70.1371C92.743 70.7509 93.2405 71.2485 93.8544 71.2485H109.627C110.241 71.2485 110.738 70.7509 110.738 70.1371C110.738 69.5233 110.241 69.0256 109.627 69.0256Z" fill="#3C86F4"/>
<path d="M71.6891 66.5803H65.2531C64.6393 66.5803 64.1417 67.0779 64.1417 67.6918C64.1417 68.3056 64.6393 68.8032 65.2531 68.8032H71.6891C72.3029 68.8032 72.8005 68.3056 72.8005 67.6918C72.8007 67.0779 72.3029 66.5803 71.6891 66.5803Z" fill="#3C86F4"/>
<path d="M82.5813 66.5803H76.1453C75.5315 66.5803 75.0338 67.0779 75.0338 67.6918C75.0338 68.3056 75.5315 68.8032 76.1453 68.8032H82.5813C83.1951 68.8032 83.6927 68.3056 83.6927 67.6918C83.6927 67.0779 83.1951 66.5803 82.5813 66.5803Z" fill="#3C86F4"/>
<path d="M84.7303 71.1372H65.2531C64.6393 71.1372 64.1417 71.6348 64.1417 72.2486C64.1417 72.8625 64.6393 73.3601 65.2531 73.3601H84.7301C85.344 73.3601 85.8416 72.8625 85.8416 72.2486C85.8417 71.6348 85.3441 71.1372 84.7303 71.1372Z" fill="#3C86F4"/>
<path d="M81.0253 75.6941H72.134C71.5202 75.6941 71.0226 76.1917 71.0226 76.8055C71.0226 77.4194 71.5202 77.917 72.134 77.917H81.0253C81.6391 77.917 82.1367 77.4194 82.1367 76.8055C82.1367 76.1919 81.6391 75.6941 81.0253 75.6941Z" fill="#3C86F4"/>
<path d="M68.4287 75.6941H65.2531C64.6393 75.6941 64.1417 76.1917 64.1417 76.8055C64.1417 77.4194 64.6393 77.917 65.2531 77.917H68.4287C69.0426 77.917 69.5402 77.4194 69.5402 76.8055C69.5402 76.1919 69.0426 75.6941 68.4287 75.6941Z" fill="#3C86F4"/>
<path d="M107.041 102.321C106.427 102.321 105.93 102.819 105.93 103.433V105.154C105.93 105.768 106.427 106.266 107.041 106.266C107.655 106.266 108.153 105.768 108.153 105.154V103.433C108.153 102.819 107.655 102.321 107.041 102.321Z" fill="#3C86F4"/>
<path d="M102.565 102.321C101.951 102.321 101.454 102.819 101.454 103.433V105.154C101.454 105.768 101.951 106.266 102.565 106.266C103.179 106.266 103.677 105.768 103.677 105.154V103.433C103.677 102.819 103.179 102.321 102.565 102.321Z" fill="#3C86F4"/>
<path d="M111.38 109.548C110.847 109.243 110.168 109.428 109.864 109.961C109.206 111.112 108.078 111.737 106.509 111.821C105.896 111.854 105.425 112.377 105.458 112.99C105.49 113.583 105.98 114.042 106.567 114.042C106.587 114.042 106.607 114.042 106.627 114.041C108.966 113.916 110.752 112.886 111.794 111.064C112.098 110.531 111.913 109.852 111.38 109.548Z" fill="#3C86F4"/>
<path d="M126.721 103.446C126.017 98.4518 124.301 94.8741 121.477 92.509C121.006 92.1152 120.305 92.1769 119.911 92.6478C119.517 93.1185 119.579 93.8195 120.05 94.2135C122.434 96.2096 123.896 99.3312 124.52 103.757C125.564 111.162 123.287 118.653 120.639 123.549C119.529 122.852 117.634 121.324 116.786 118.635C116.601 118.05 115.977 117.725 115.392 117.91C114.806 118.094 114.481 118.718 114.666 119.304C116.208 124.191 120.468 125.995 120.649 126.07C120.787 126.127 120.93 126.154 121.072 126.154C121.455 126.154 121.824 125.955 122.029 125.607C125.08 120.44 127.914 111.905 126.721 103.446Z" fill="#3C86F4"/>
<path d="M120.93 102.684C120.48 102.234 119.955 101.893 119.374 101.671C118.438 101.312 117.432 101.285 116.507 101.557V100.455C116.507 100.093 116.331 99.7542 116.035 99.546C115.739 99.3379 115.361 99.2867 115.02 99.4084C114.963 99.4289 109.27 101.396 105.473 96.4653C105.278 96.2119 104.983 96.0548 104.664 96.0342C104.346 96.0145 104.033 96.1314 103.807 96.3573C102.905 97.2591 100.684 97.624 99.0494 97.6847C98.6569 95.3361 99.4984 93.9019 99.9127 93.3605C101.066 91.8542 103.253 91.0905 106.414 91.0905C110.036 91.0905 113.835 91.1932 116.972 92.42C117.543 92.6435 118.188 92.3615 118.412 91.7897C118.635 91.2181 118.353 90.5733 117.782 90.3496C114.285 88.9819 110.248 88.8674 106.414 88.8674C102.525 88.8674 99.7438 89.9244 98.1477 92.0091C96.1621 94.6026 96.7427 97.8242 97.0844 99.0887C97.2116 99.5593 97.6306 99.8921 98.1177 99.9096C98.5695 99.9258 102.112 100.006 104.418 98.6581C106.78 101.209 109.558 101.905 111.555 102.02C112.615 102.08 113.559 101.987 114.284 101.864V103.47C114.284 103.924 114.561 104.332 114.982 104.501C115.397 104.667 115.87 104.568 116.184 104.252C116.811 103.627 117.749 103.428 118.579 103.747C118.868 103.857 119.13 104.028 119.358 104.256C119.782 104.68 120.016 105.243 120.016 105.843C120.016 106.442 119.782 107.005 119.358 107.429C119.115 107.672 118.83 107.852 118.509 107.965C118.116 108.103 117.833 108.449 117.776 108.862C117.149 113.435 113.19 116.883 108.567 116.883C103.44 116.883 99.269 112.712 99.269 107.586V102.561C99.269 101.948 98.7715 101.45 98.1575 101.45C97.5436 101.45 97.0461 101.948 97.0461 102.561V107.586C97.0461 113.938 102.214 119.106 108.567 119.106C114.085 119.106 118.839 115.141 119.876 109.785C120.262 109.579 120.614 109.317 120.929 109.002C121.774 108.159 122.239 107.037 122.239 105.843C122.239 104.649 121.774 103.527 120.93 102.684Z" fill="#3C86F4"/>
</g>
<defs>
<clipPath id="clip0">
<rect width="74" height="74" fill="white" transform="translate(53.0001 53.217)"/>
</clipPath>
</defs>
</svg>
