<svg width="14" height="14" viewBox="0 0 14 14" fill="none" xmlns="http://www.w3.org/2000/svg">
<g opacity="0.25">
<path d="M0.344595 0.344595C0.804055 -0.114865 1.54899 -0.114865 2.00845 0.344595L13.6554 11.9916C14.1149 12.451 14.1149 13.1959 13.6554 13.6554C13.1959 14.1149 12.451 14.1149 11.9916 13.6554L0.344595 2.00845C-0.114864 1.54899 -0.114864 0.804055 0.344595 0.344595Z" fill="black"/>
<path d="M13.6554 0.344595C14.1149 0.804055 14.1149 1.54899 13.6554 2.00845L2.00845 13.6554C1.54899 14.1149 0.804055 14.1149 0.344595 13.6554C-0.114865 13.1959 -0.114865 12.451 0.344595 11.9916L11.9916 0.344595C12.451 -0.114865 13.1959 -0.114865 13.6554 0.344595Z" fill="black"/>
</g>
</svg>
