<svg width="149" height="37" viewBox="0 0 149 37" fill="none" xmlns="http://www.w3.org/2000/svg">
<path d="M9.21713 32.659C8.31046 32.659 7.85713 32.3657 7.85713 31.779C7.85713 30.099 8.05713 28.0457 8.45713 25.619C8.83046 23.059 9.04379 21.0857 9.09713 19.699C8.29713 19.6457 7.37713 19.619 6.33713 19.619L5.37713 19.699C5.29713 20.1523 5.24379 20.819 5.21713 21.699C5.00379 24.7657 4.80379 27.0457 4.61713 28.539C4.48379 29.7657 4.28379 30.7523 4.01713 31.499C3.77713 32.2457 3.49713 32.619 3.17713 32.619C2.88379 32.619 2.61713 32.539 2.37713 32.379C2.16379 32.219 2.05713 32.019 2.05713 31.779C2.05713 28.6323 2.52379 24.6457 3.45713 19.819L2.25713 19.899C1.16379 19.899 0.617126 19.4724 0.617126 18.619C0.617126 18.0324 1.24379 17.739 2.49713 17.739H3.69713C3.93713 16.3524 4.13713 14.619 4.29713 12.539L3.29713 12.619C2.04379 12.619 1.41713 12.2323 1.41713 11.459V11.259L2.01713 10.619H3.21713C3.77713 10.619 4.19046 10.6057 4.45713 10.579L4.81713 8.09902C5.16379 5.85902 5.33713 4.03235 5.33713 2.61902V1.89902C5.33713 1.41902 5.40379 1.05902 5.53713 0.819015C5.67046 0.579015 5.93713 0.459015 6.33713 0.459015H6.65713L7.09713 1.37901C7.09713 2.41902 6.97713 3.93902 6.73713 5.93902C6.49713 7.93902 6.37713 9.41902 6.37713 10.379C6.53713 10.4323 6.89713 10.459 7.45713 10.459H8.13713C8.93713 10.459 9.51046 10.4057 9.85713 10.299C10.1238 9.15235 10.4705 7.04568 10.8971 3.97901C11.0038 3.15235 11.1505 2.17902 11.3371 1.05901C11.6305 0.659015 11.9638 0.459015 12.3371 0.459015C12.5505 0.459015 12.7638 0.552349 12.9771 0.739016C13.1905 0.899016 13.2971 1.07235 13.2971 1.25901C13.2971 2.24568 13.0705 3.75235 12.6171 5.77902C12.1638 7.67235 11.9105 9.15235 11.8571 10.219H13.1371L13.9771 11.139C13.9238 11.4057 13.8705 11.619 13.8171 11.779C13.7638 11.9123 13.6571 12.0323 13.4971 12.139C13.3105 12.2723 13.1238 12.339 12.9371 12.339L11.6171 12.259C11.3505 13.6457 11.1905 15.3657 11.1371 17.419H11.5371C12.6571 17.419 13.2171 17.819 13.2171 18.619C13.2171 19.2857 12.7105 19.619 11.6971 19.619H11.5771L11.0171 19.579C10.9638 20.139 10.8171 21.4324 10.5771 23.459C10.1238 27.1657 9.89713 29.9524 9.89713 31.819L9.21713 32.659ZM6.01713 17.699C7.37713 17.699 8.39046 17.659 9.05713 17.579C9.43046 15.2857 9.64379 13.579 9.69713 12.459C9.11046 12.3523 8.48379 12.299 7.81713 12.299C7.12379 12.299 6.56379 12.339 6.13713 12.419C5.79046 13.779 5.57713 15.5257 5.49713 17.659C5.57713 17.6857 5.75046 17.699 6.01713 17.699Z" fill="#3C86F4" fill-opacity="0.25"/>
<path d="M30.0571 35.219C29.8171 35.219 29.5771 35.0857 29.3371 34.819C29.1238 34.579 29.0171 34.299 29.0171 33.979C29.0171 33.5257 29.0971 32.259 29.2571 30.179C28.6705 30.019 28.0838 29.939 27.4971 29.939C26.9371 29.939 26.1505 30.0057 25.1371 30.139L24.1771 30.259C22.2305 30.4724 20.6971 30.619 19.5771 30.699C19.4705 30.699 18.7638 30.739 17.4571 30.819C17.4571 31.0857 17.4571 31.4724 17.4571 31.979C17.4838 32.4857 17.4838 32.899 17.4571 33.219C17.4305 33.5657 17.3238 33.8457 17.1371 34.059C16.9771 34.2724 16.7771 34.379 16.5371 34.379C16.4038 34.379 16.2305 34.3257 16.0171 34.219C15.8038 34.0324 15.5771 33.6724 15.3371 33.139C15.2838 32.979 15.2571 32.4057 15.2571 31.419L15.2171 30.339C15.1905 30.1257 15.2971 29.899 15.5371 29.659C15.7771 29.3924 16.1105 29.2457 16.5371 29.219C17.7371 29.139 18.5105 28.459 18.8571 27.179C19.0438 26.5657 19.2171 25.8324 19.3771 24.979C19.5371 24.099 19.6438 23.3257 19.6971 22.659C20.0705 19.139 20.2571 16.4457 20.2571 14.579C20.2571 13.939 20.2305 13.0057 20.1771 11.779C20.1238 10.9257 20.0971 10.299 20.0971 9.89902C20.0971 8.77902 20.0838 7.93902 20.0571 7.37902C20.0571 5.11235 20.0305 3.67235 19.9771 3.05902C19.9238 2.52568 20.0171 2.08568 20.2571 1.73902C20.4971 1.36568 20.8705 1.15235 21.3771 1.09902C22.6571 0.965684 23.4305 0.899017 23.6971 0.899017C24.2571 0.899017 24.7505 0.965684 25.1771 1.09902C25.3638 1.15235 25.5238 1.17902 25.6571 1.17902C25.8171 1.17902 25.9371 1.19235 26.0171 1.21902C26.5238 1.27235 26.8705 1.37902 27.0571 1.53902C27.2705 1.69902 27.3771 2.08568 27.3771 2.69902L27.3371 5.45902C27.3371 6.07235 27.3505 6.52568 27.3771 6.81902C27.4571 9.72568 27.6038 14.2057 27.8171 20.259L27.8571 21.339C27.9105 22.699 27.9771 24.0857 28.0571 25.499C28.1371 26.8857 28.2438 27.859 28.3771 28.419C29.3638 28.419 30.1105 28.4857 30.6171 28.619C31.1505 28.7524 31.4171 29.0857 31.4171 29.619C31.4171 29.7524 31.4038 29.859 31.3771 29.939C31.2971 30.4724 31.2171 31.059 31.1371 31.699C31.0571 32.339 31.0038 32.8857 30.9771 33.339C30.9505 33.4723 30.9371 33.7257 30.9371 34.099C30.9371 34.4724 30.8705 34.7524 30.7371 34.939C30.6305 35.1257 30.4038 35.219 30.0571 35.219ZM20.4571 28.899C21.6305 28.7924 22.5905 28.7257 23.3371 28.699L26.1771 28.499C26.2305 27.9124 26.2571 27.4857 26.2571 27.219C26.2571 26.8457 26.2305 26.2057 26.1771 25.299C26.1771 25.1124 26.1505 24.8057 26.0971 24.379C26.0705 23.9524 26.0571 23.5657 26.0571 23.219L25.7771 16.859V12.899L25.2971 3.69902C25.2971 3.27235 25.2571 2.93902 25.1771 2.69902C24.8838 2.56568 24.4038 2.49902 23.7371 2.49902C23.1505 2.49902 22.5905 2.53902 22.0571 2.61902V11.939C21.9771 15.5657 21.8438 18.779 21.6571 21.579C21.5771 22.8857 21.4038 24.2457 21.1371 25.659C20.8971 27.0724 20.6705 28.1524 20.4571 28.899Z" fill="#3C86F4"/>
<path d="M38.2496 31.819C37.5563 31.819 36.9163 31.5924 36.3296 31.139C35.743 30.7124 35.263 30.1257 34.8896 29.379C34.1163 27.7524 33.6363 25.979 33.4496 24.059C33.2096 22.2457 33.0896 20.499 33.0896 18.819C33.0896 18.499 33.103 18.2324 33.1296 18.019V17.299C33.1296 17.1657 33.1163 17.099 33.0896 17.099V16.379L33.1296 13.579C33.1563 12.7257 33.263 11.3657 33.4496 9.49902C33.583 8.21902 33.8896 6.97902 34.3696 5.77902C34.5563 5.24568 34.7963 4.84568 35.0896 4.57902C35.383 4.28568 35.7163 4.13902 36.0896 4.13902C37.1563 4.13902 38.1163 4.33902 38.9696 4.73902C39.823 5.11235 40.543 5.64568 41.1296 6.33902C41.663 7.00568 42.1163 7.83235 42.4896 8.81902C42.863 9.77902 43.1296 10.8057 43.2896 11.899C43.4496 13.019 43.5296 14.2057 43.5296 15.459V15.779C43.5296 16.6057 43.543 17.3524 43.5696 18.019L43.6096 20.299C43.6096 27.979 41.823 31.819 38.2496 31.819ZM38.0896 30.139C38.5696 30.139 39.0096 29.9524 39.4096 29.579C39.8096 29.179 40.1163 28.6457 40.3296 27.979C40.8363 26.619 41.143 25.1524 41.2496 23.579C41.383 22.219 41.4496 21.0457 41.4496 20.059C41.4496 18.859 41.3563 17.2857 41.1696 15.339C41.0096 13.2857 40.9296 11.7524 40.9296 10.739V10.019C40.8763 9.00568 40.5296 8.12568 39.8896 7.37902C39.2763 6.63235 38.5163 6.25902 37.6096 6.25902C36.703 6.25902 36.103 6.77902 35.8096 7.81902C35.543 8.64568 35.4096 9.71235 35.4096 11.019C35.4096 11.5257 35.423 11.9523 35.4496 12.299V13.379L35.3696 15.219C35.3163 15.779 35.2896 16.3924 35.2896 17.059C35.2896 18.499 35.3296 19.9257 35.4096 21.339C35.5163 23.339 35.783 25.2857 36.2096 27.179C36.6363 29.1524 37.263 30.139 38.0896 30.139Z" fill="#3C86F4"/>
<path d="M49.5437 31.059C48.6904 31.1124 48.2904 30.6857 48.3437 29.779L48.3837 27.019C48.4104 26.4324 48.4237 25.5257 48.4237 24.299V21.339C48.4237 20.0324 48.4104 19.0457 48.3837 18.379C48.357 17.5257 48.3437 16.259 48.3437 14.579V9.81902C48.3437 9.09902 48.317 8.49902 48.2637 8.01902C48.237 7.53902 48.1437 7.03235 47.9837 6.49902C47.9304 6.28568 47.9037 6.12568 47.9037 6.01902C47.9037 5.56568 48.0637 5.16568 48.3837 4.81902C48.7304 4.47235 49.157 4.28568 49.6637 4.25902C50.3837 4.23235 51.077 4.19235 51.7437 4.13902C52.437 4.08568 53.1037 3.99235 53.7437 3.85902C53.9837 3.75235 54.2504 3.81902 54.5437 4.05902C54.837 4.27235 55.0104 4.51235 55.0637 4.77902C55.117 4.99235 55.0637 5.20568 54.9037 5.41902C54.7437 5.60568 54.5304 5.73902 54.2637 5.81902C53.7037 5.97902 52.4904 6.16568 50.6237 6.37902L50.2637 16.259C51.4904 16.3924 52.437 16.739 53.1037 17.299C53.7704 17.859 54.2237 18.8324 54.4637 20.219C54.757 21.3124 54.9037 22.4857 54.9037 23.739C54.9037 24.539 54.8237 25.3657 54.6637 26.219C54.2904 27.9524 53.397 29.2324 51.9837 30.059C51.8237 30.1657 51.5837 30.3124 51.2637 30.499C50.9704 30.6857 50.677 30.8324 50.3837 30.939C50.117 31.019 49.837 31.059 49.5437 31.059ZM50.3437 28.899C50.877 28.739 51.357 28.419 51.7837 27.939C52.2104 27.459 52.4904 26.939 52.6237 26.379C52.8637 25.339 52.9837 24.3257 52.9837 23.339C52.9837 22.299 52.8637 21.2857 52.6237 20.299C52.4637 19.659 52.2104 19.1657 51.8637 18.819C51.5437 18.4457 51.037 18.2457 50.3437 18.219V28.899Z" fill="#3C86F4"/>
<path d="M59.7231 31.339C59.3764 29.9257 59.2031 27.9657 59.2031 25.459L59.2831 21.899C59.3364 20.8324 59.3631 19.6457 59.3631 18.339C59.2031 17.9657 59.1231 17.6323 59.1231 17.339V17.219C59.3897 16.7124 59.5231 15.5657 59.5231 13.779L59.5631 11.939C59.5897 11.3524 59.6031 10.699 59.6031 9.97902C59.6031 8.40568 59.4964 7.16568 59.2831 6.25902C59.3631 5.88568 59.4964 5.56568 59.6831 5.29902C59.8697 5.00568 60.0964 4.85902 60.3631 4.85902H62.1231C62.8697 4.85902 63.5231 5.03235 64.0831 5.37902C64.6431 5.69902 65.0697 6.16568 65.3631 6.77902C65.8964 7.87235 66.1631 9.16568 66.1631 10.659C66.1631 11.7257 66.1497 12.5657 66.1231 13.179C66.0697 13.9523 65.9364 14.659 65.7231 15.299C65.6431 15.6457 65.5231 15.939 65.3631 16.179C65.2297 16.3924 65.0297 16.659 64.7631 16.979C64.3897 17.4324 63.7764 17.859 62.9231 18.259C62.5764 18.4457 62.1231 18.619 61.5631 18.779V23.059L61.6431 25.619L61.7231 26.859C61.8297 28.3524 61.8831 29.619 61.8831 30.659C61.8831 30.979 61.7497 31.2457 61.4831 31.459C61.2164 31.699 60.9097 31.819 60.5631 31.819L59.7231 31.339ZM61.6031 17.139C63.1764 16.899 63.9631 14.6457 63.9631 10.379C63.9631 9.60568 63.9231 9.00568 63.8431 8.57902C63.7631 8.25902 63.6564 8.00568 63.5231 7.81902C63.3897 7.60568 63.1897 7.43235 62.9231 7.29902C62.6297 7.13902 62.3097 7.05902 61.9631 7.05902C61.9631 7.03235 61.8164 7.01902 61.5231 7.01902V9.29902C61.5231 10.8724 61.5364 12.2724 61.5631 13.499C61.5631 14.8857 61.5764 15.7924 61.6031 16.219V17.139Z" fill="#3C86F4"/>
<path d="M74.7731 31.819C74.0797 31.819 73.4397 31.5924 72.8531 31.139C72.2664 30.7124 71.7864 30.1257 71.4131 29.379C70.6397 27.7524 70.1597 25.979 69.9731 24.059C69.7331 22.2457 69.6131 20.499 69.6131 18.819C69.6131 18.499 69.6264 18.2324 69.6531 18.019V17.299C69.6531 17.1657 69.6397 17.099 69.6131 17.099V16.379L69.6531 13.579C69.6797 12.7257 69.7864 11.3657 69.9731 9.49902C70.1064 8.21902 70.4131 6.97902 70.8931 5.77902C71.0797 5.24568 71.3197 4.84568 71.6131 4.57902C71.9064 4.28568 72.2397 4.13902 72.6131 4.13902C73.6797 4.13902 74.6397 4.33902 75.4931 4.73902C76.3464 5.11235 77.0664 5.64568 77.6531 6.33902C78.1864 7.00568 78.6397 7.83235 79.0131 8.81902C79.3864 9.77902 79.6531 10.8057 79.8131 11.899C79.9731 13.019 80.0531 14.2057 80.0531 15.459V15.779C80.0531 16.6057 80.0664 17.3524 80.0931 18.019L80.1331 20.299C80.1331 27.979 78.3464 31.819 74.7731 31.819ZM74.6131 30.139C75.0931 30.139 75.5331 29.9524 75.9331 29.579C76.3331 29.179 76.6397 28.6457 76.8531 27.979C77.3597 26.619 77.6664 25.1524 77.7731 23.579C77.9064 22.219 77.9731 21.0457 77.9731 20.059C77.9731 18.859 77.8797 17.2857 77.6931 15.339C77.5331 13.2857 77.4531 11.7524 77.4531 10.739V10.019C77.3997 9.00568 77.0531 8.12568 76.4131 7.37902C75.7997 6.63235 75.0397 6.25902 74.1331 6.25902C73.2264 6.25902 72.6264 6.77902 72.3331 7.81902C72.0664 8.64568 71.9331 9.71235 71.9331 11.019C71.9331 11.5257 71.9464 11.9523 71.9731 12.299V13.379L71.8931 15.219C71.8397 15.779 71.8131 16.3924 71.8131 17.059C71.8131 18.499 71.8531 19.9257 71.9331 21.339C72.0397 23.339 72.3064 25.2857 72.7331 27.179C73.1597 29.1524 73.7864 30.139 74.6131 30.139Z" fill="#3C86F4"/>
<path d="M88.8171 31.379C87.8838 31.2723 87.2171 30.7923 86.8171 29.939C86.6571 29.619 86.5505 29.379 86.4971 29.219C86.2305 28.6857 86.0305 28.219 85.8971 27.819C85.7638 27.419 85.6971 27.0057 85.6971 26.579L85.7371 26.139C85.7638 25.8457 85.8438 25.5923 85.9771 25.379C86.1105 25.1657 86.2838 25.0323 86.4971 24.979C86.7905 24.9257 87.0838 25.0057 87.3771 25.219C87.6971 25.4057 87.8971 25.6457 87.9771 25.939C88.0838 26.2057 88.1905 26.579 88.2971 27.059C88.4571 27.779 88.6705 28.4723 88.9371 29.139C89.0971 29.4857 89.3638 29.659 89.7371 29.659C89.8438 29.659 90.0038 29.6323 90.2171 29.579C91.1771 29.179 91.8305 28.579 92.1771 27.779C92.8171 26.2323 93.1371 24.739 93.1371 23.299C93.1371 22.739 93.0705 22.0857 92.9371 21.339C92.9105 21.0723 92.8838 20.819 92.8571 20.579C92.8305 20.3123 92.8038 20.0457 92.7771 19.779C92.6438 18.8723 92.3371 18.1523 91.8571 17.619C91.3771 17.0857 90.6838 16.699 89.7771 16.459C89.6971 16.4323 89.4838 16.3923 89.1371 16.339C88.7905 16.259 88.4971 16.1257 88.2571 15.939C88.0438 15.7257 87.9371 15.4723 87.9371 15.179C87.8838 14.4323 88.4838 13.9257 89.7371 13.659C90.4305 13.4723 90.9905 13.059 91.4171 12.419C92.4305 11.4857 92.9371 10.1257 92.9371 8.33901C92.9371 7.27234 92.7638 6.17901 92.4171 5.05901C92.2571 4.44567 91.8971 3.97901 91.3371 3.65901C90.7771 3.31234 90.1771 3.13901 89.5371 3.13901C88.6305 3.13901 87.8705 3.52567 87.2571 4.29901C87.1505 4.43234 86.9638 4.71234 86.6971 5.13901C86.2438 5.88567 85.9238 6.32567 85.7371 6.45901C85.5238 6.67234 85.3105 6.77901 85.0971 6.77901C84.7771 6.77901 84.5238 6.69901 84.3371 6.53901C84.1771 6.35234 84.0838 6.15234 84.0571 5.93901C84.0305 5.83234 84.0171 5.67234 84.0171 5.45901C84.0171 4.57901 84.2705 3.77901 84.7771 3.05901C85.3105 2.33901 85.9771 1.76567 86.7771 1.33901C87.6038 0.912339 88.4171 0.699005 89.2171 0.699005C90.1505 0.699005 91.1238 0.952339 92.1371 1.45901C93.5505 2.15234 94.4171 3.25901 94.7371 4.77901C94.9238 5.60567 95.0171 6.44567 95.0171 7.29901C95.0171 8.47234 94.8438 9.67234 94.4971 10.899C94.1771 12.1257 93.4838 13.299 92.4171 14.419L91.6171 14.779C92.4971 14.9657 93.2838 15.6057 93.9771 16.699C94.6705 17.7923 95.0171 18.8857 95.0171 19.979C95.0171 20.4323 95.0571 20.8857 95.1371 21.339C95.1905 21.819 95.2171 22.1523 95.2171 22.339C95.2438 22.6057 95.2571 22.9923 95.2571 23.499C95.2571 25.019 95.0438 26.419 94.6171 27.699C93.8171 30.2323 92.2971 31.499 90.0571 31.499C89.6838 31.499 89.2705 31.459 88.8171 31.379Z" fill="#26D193"/>
<path d="M114.206 35.979C113.993 36.0323 113.833 36.059 113.726 36.059C113.406 36.059 113.18 35.859 113.046 35.459C112.94 35.139 112.886 34.739 112.886 34.259L112.926 31.499C112.926 31.339 112.913 31.1923 112.886 31.059C112.86 30.9257 112.833 30.7923 112.806 30.659H108.206C108.473 30.659 107.833 30.7923 106.286 31.059C104.766 31.299 103.58 31.459 102.726 31.539L100.926 31.699L98.9262 31.899C98.9262 32.139 98.9262 32.4323 98.9262 32.779C98.9528 33.1257 98.9528 33.539 98.9262 34.019V34.219C98.9262 34.6457 98.8195 34.9657 98.6062 35.179C98.3928 35.3923 98.1928 35.499 98.0062 35.499C97.8995 35.499 97.7395 35.4457 97.5262 35.339C97.0462 34.9923 96.7795 34.5123 96.7262 33.899L96.6062 30.979C96.5528 29.939 96.9795 29.419 97.8862 29.419C98.3928 29.3923 98.7928 29.259 99.0862 29.019C99.3795 28.779 99.7262 28.4057 100.126 27.899C100.526 27.3657 100.833 26.779 101.046 26.139C101.286 25.4723 101.513 24.6723 101.726 23.739C101.966 22.7257 102.14 21.739 102.246 20.779C102.353 19.819 102.486 18.4457 102.646 16.659C102.886 13.859 103.006 11.0457 103.006 8.21901L102.966 5.97901C102.966 5.47234 103.113 5.05901 103.406 4.73901C103.7 4.39234 104.1 4.21901 104.606 4.21901C104.766 4.21901 104.886 4.23234 104.966 4.25901C106.193 4.47234 107.193 4.60567 107.966 4.65901H108.166C108.513 4.65901 108.713 4.59234 108.766 4.45901C109.006 4.13901 109.3 3.97901 109.646 3.97901C109.886 3.97901 110.1 4.03234 110.286 4.13901C110.713 4.29901 110.993 4.69901 111.126 5.33901L110.926 12.179C110.926 15.8857 110.94 18.659 110.966 20.499C110.966 21.459 110.993 22.9257 111.046 24.899L111.086 27.099C111.086 27.3123 111.1 27.5123 111.126 27.699C111.153 27.8857 111.18 28.0723 111.206 28.259C111.74 28.3123 112.14 28.339 112.406 28.339C112.62 28.339 112.78 28.3257 112.886 28.299C113.473 28.219 113.993 28.3657 114.446 28.739C114.926 29.0857 115.166 29.539 115.166 30.099C115.166 30.819 115.113 31.899 115.006 33.339C115.006 33.7123 114.98 34.2457 114.926 34.939C114.873 35.499 114.633 35.8457 114.206 35.979ZM102.686 29.619C104.18 29.4857 105.353 29.3657 106.206 29.259C107.086 29.1257 107.953 28.9257 108.806 28.659C109.073 25.4323 109.206 21.979 109.206 18.299C109.206 14.8857 109.073 11.139 108.806 7.05901C108.113 7.03234 106.82 6.96567 104.926 6.85901L104.886 8.73901C104.673 12.8457 104.526 15.9123 104.446 17.939C104.34 20.979 103.82 23.9657 102.886 26.899C102.833 27.059 102.713 27.459 102.526 28.099C102.366 28.7123 102.113 29.2457 101.766 29.699L102.686 29.619Z" fill="#26D193"/>
<path d="M119.441 31.579C119.094 31.579 118.774 31.459 118.481 31.219C118.214 30.979 118.068 30.6857 118.041 30.339V28.499C118.014 28.259 118.001 27.979 118.001 27.659C118.001 27.099 117.961 26.2457 117.881 25.099L117.801 22.539C117.801 21.2323 117.841 19.2857 117.921 16.699C118.028 14.379 118.081 12.4323 118.081 10.859C118.081 10.4857 118.041 9.92567 117.961 9.17901C117.881 8.40567 117.841 7.84567 117.841 7.49901C117.841 5.60567 118.401 4.65901 119.521 4.65901C120.401 4.65901 121.414 4.83234 122.561 5.17901C123.734 5.52567 124.321 5.93901 124.321 6.41901C124.321 6.68567 124.201 6.93901 123.961 7.17901C123.748 7.39234 123.481 7.56567 123.161 7.69901C122.041 7.29901 121.028 7.03234 120.121 6.89901C120.148 7.29901 120.161 7.87234 120.161 8.61901C120.161 9.68567 120.148 10.6457 120.121 11.499C120.041 12.779 120.001 13.739 120.001 14.379L120.121 15.019L120.761 14.979C120.974 14.9523 121.241 14.939 121.561 14.939C122.841 14.939 123.481 15.3123 123.481 16.059C123.481 16.3523 123.361 16.6057 123.121 16.819C122.881 17.0057 122.574 17.099 122.201 17.099C121.721 17.099 121.348 17.0723 121.081 17.019H120.081C120.134 17.7123 120.161 18.7257 120.161 20.059C120.161 21.3923 120.148 22.5923 120.121 23.659C120.041 25.2857 120.001 26.499 120.001 27.299C120.001 28.7923 120.028 29.539 120.081 29.539L121.401 29.499C121.854 29.4723 122.401 29.459 123.041 29.459C124.054 29.459 124.561 29.779 124.561 30.419C124.561 30.7923 124.388 31.0723 124.041 31.259C123.721 31.4723 123.321 31.579 122.841 31.579H119.441Z" fill="#26D193"/>
<path d="M134.328 31.619C133.741 31.619 133.115 31.5257 132.448 31.339C131.808 31.179 131.315 30.9923 130.968 30.779C129.181 29.6323 128.288 26.499 128.288 21.379V18.099C128.288 17.0323 128.301 16.0857 128.328 15.259C128.355 14.4057 128.408 13.4857 128.488 12.499C128.568 11.459 128.688 10.619 128.848 9.97901C129.008 9.31234 129.275 8.56567 129.648 7.73901C129.968 6.96567 130.355 6.36567 130.808 5.93901C131.288 5.51234 131.901 5.15234 132.648 4.85901C133.315 4.56567 134.141 4.41901 135.128 4.41901C135.528 4.41901 135.835 4.51234 136.048 4.69901C136.261 4.88567 136.368 5.12567 136.368 5.41901C136.368 5.68567 136.275 5.92567 136.088 6.13901C135.928 6.35234 135.728 6.47234 135.488 6.49901H133.608C133.075 6.49901 132.608 6.83234 132.208 7.49901C131.808 8.16567 131.528 9.03234 131.368 10.099C131.021 12.0723 130.848 13.6723 130.848 14.899V15.099L130.768 18.939C130.715 20.0857 130.688 21.379 130.688 22.819C130.688 23.8323 130.728 24.659 130.808 25.299C130.941 26.259 131.168 27.059 131.488 27.699C131.808 28.419 132.355 28.939 133.128 29.259C133.528 29.419 133.968 29.499 134.448 29.499C134.741 29.499 135.035 29.3923 135.328 29.179C135.675 29.179 135.955 29.259 136.168 29.419C136.408 29.5523 136.528 29.7657 136.528 30.059C136.528 31.099 135.795 31.619 134.328 31.619Z" fill="#26D193"/>
<path d="M140.98 30.899C140.447 30.8723 140.14 30.5923 140.06 30.059L140.18 20.059V11.059C140.18 8.44567 140.193 6.48567 140.22 5.17901C140.22 5.01901 140.3 4.87234 140.46 4.73901C140.647 4.60567 140.873 4.53901 141.14 4.53901C141.353 4.53901 141.567 4.60567 141.78 4.73901C141.993 4.87234 142.153 5.04567 142.26 5.25901C142.5 5.68567 142.62 6.31234 142.62 7.13901C142.62 7.72567 142.527 8.64567 142.34 9.89901C142.26 10.459 142.207 11.0723 142.18 11.739C142.153 12.4057 142.14 12.8457 142.14 13.059C142.087 13.4323 142.02 14.0323 141.94 14.859C141.887 15.6857 141.887 16.0857 141.94 16.059C142.34 16.0057 142.833 16.099 143.42 16.339C143.873 16.499 144.14 16.579 144.22 16.579C145.393 16.7923 146.287 17.499 146.9 18.699C147.54 19.8723 147.913 21.0857 148.02 22.339C148.047 22.6323 148.06 23.059 148.06 23.619C148.06 24.9523 147.94 26.099 147.7 27.059C147.433 28.9257 146.313 30.2057 144.34 30.899C144.02 31.0057 143.607 31.059 143.1 31.059C142.727 31.059 142.313 31.0457 141.86 31.019C141.433 30.9657 141.14 30.9257 140.98 30.899ZM142.3 29.299C142.593 29.379 142.86 29.419 143.1 29.419C143.633 29.419 144.087 29.2723 144.46 28.979C144.833 28.659 145.073 28.2457 145.18 27.739C145.313 27.1257 145.46 26.2057 145.62 24.979C145.673 24.3923 145.727 23.9257 145.78 23.579C145.807 23.419 145.82 23.179 145.82 22.859C145.82 21.739 145.607 20.7123 145.18 19.779C144.753 18.819 144.14 18.2857 143.34 18.179C142.78 18.0723 142.367 18.0057 142.1 17.979L142.3 29.299Z" fill="#26D193"/>
</svg>
