<svg width="46" height="65" viewBox="0 0 46 65" fill="none" xmlns="http://www.w3.org/2000/svg">
<path d="M45.5 18.1877C45.5 14.0522 42.1355 10.6877 38.0001 10.6877C34.0858 10.6877 30.8642 13.7024 30.5304 17.5315C29.9458 17.5614 29.4024 17.673 28.9578 17.8273C24.238 19.4649 20.6338 23.1246 18.986 27.6266C18.2987 27.2811 17.5351 27.094 16.7502 27.094H10.5V17.0938C10.5 16.4518 10.377 15.8383 10.1556 15.2739C13.2403 14.3419 15.5 11.4679 15.5 8.0938C15.5 3.9583 12.1355 0.593811 7.99999 0.593811C3.86449 0.593811 0.5 3.9583 0.5 8.0938C0.5 9.99829 1.20437 11.7789 2.446 13.1392C1.2635 14.0544 0.5 15.4863 0.5 17.0938V32.0941V63.3438C0.5 64.0342 1.05962 64.5938 1.75 64.5938H9.24998C9.94036 64.5938 10.5 64.0342 10.5 63.3438V55.8436C10.5 55.1532 9.94036 54.5936 9.24998 54.5936C8.55961 54.5936 7.99999 55.1532 7.99999 55.8436V62.0938H2.99999V36.4215C3.73599 36.8484 4.58962 37.0941 5.49999 37.0941H7.99999V44.5935C7.99999 45.2838 8.55961 45.8435 9.24998 45.8435C9.94036 45.8435 10.5 45.2838 10.5 44.5935V37.0941H18.0003V63.1876C18.0003 63.8779 18.56 64.4376 19.2503 64.4376H26.7503C27.4407 64.4376 28.0003 63.8779 28.0003 63.1876L28.0006 43.7659C28.7364 44.1925 29.5906 44.4368 30.5006 44.4368H40.5008V63.1874C40.5008 63.8778 41.0604 64.4374 41.7508 64.4374C42.4412 64.4374 43.0008 63.8778 43.0008 63.1874V43.187V39.437C43.0008 36.68 40.7578 34.437 38.0008 34.437H35.5006L35.5003 25.2599C36.2959 25.5414 37.1377 25.6876 38.0001 25.6876C42.1355 25.6876 45.5 22.3231 45.5 18.1877ZM2.99999 8.0938C2.99999 5.3368 5.24299 3.09381 7.99999 3.09381C10.757 3.09381 13 5.3368 13 8.0938C13 10.6853 11.0009 12.8344 8.46423 13.0704C7.63411 12.4572 6.60886 12.0938 5.49999 12.0938C5.34237 12.0938 5.18674 12.102 5.03287 12.1163C3.75349 11.1747 2.99999 9.70067 2.99999 8.0938ZM5.49999 34.5941C4.12149 34.5941 2.99999 33.4726 2.99999 32.0941V17.0938C2.99999 15.7153 4.12149 14.5938 5.49999 14.5938C6.87849 14.5938 7.99999 15.7153 7.99999 17.0938V28.3441C7.99999 29.0345 8.55961 29.5941 9.24998 29.5941H16.7503C17.3126 29.5941 17.8542 29.7873 18.2926 30.1334C18.1015 31.1278 18.0002 32.149 18.0002 33.1876V34.5941H5.49999ZM38.0008 36.937C39.3793 36.937 40.5008 38.0585 40.5008 39.437V41.937H30.5006C29.1222 41.937 28.0007 40.8155 28.0006 39.437L28.0003 30.8443C28.0003 30.1539 27.4406 29.5943 26.7503 29.5943C26.0601 29.5943 25.5003 30.154 25.5003 30.8443L25.5006 39.4369L25.5003 61.9374H20.5003V33.1875C20.5003 27.338 24.2285 22.1144 29.7773 20.1891C30.5002 19.9384 31.5891 19.9385 32.2713 20.424C32.7618 20.773 33.0003 21.3446 33.0003 22.1718L33.0006 35.6867C33.0006 36.3771 33.5602 36.9367 34.2506 36.9367H38.0008V36.937ZM35.5002 22.1719C35.5002 20.0903 34.5324 18.9648 33.7207 18.3872C33.4911 18.2238 33.2508 18.09 33.0054 17.9773C33.1162 15.3175 35.3137 13.1877 38.0001 13.1877C40.757 13.1877 43 15.4307 43 18.1877C43 20.9446 40.757 23.1876 38.0001 23.1876C37.1131 23.1876 36.2586 22.9568 35.5002 22.5173V22.1719Z" fill="#3C86F4"/>
</svg>
