<svg width="16" height="17" viewBox="0 0 16 17" fill="none" xmlns="http://www.w3.org/2000/svg">
<g clip-path="url(#clip0)">
<path fill-rule="evenodd" clip-rule="evenodd" d="M9.46334 6.13986C9.03884 5.87311 8.53734 5.71814 8.00003 5.71814C7.16262 5.71814 6.41168 6.0937 5.90537 6.68464L5.90368 6.6849L5.90536 6.68513C5.49196 7.16761 5.24139 7.79351 5.24139 8.47721C5.24139 8.73965 5.27901 8.9933 5.34778 9.23393L5.34792 9.23402C5.67789 10.388 6.74148 11.2355 8.00001 11.2355C8.95017 11.2355 9.7897 10.7525 10.286 10.0193L10.2865 10.0192C10.5844 9.57878 10.7586 9.04805 10.7586 8.47738C10.7586 7.49354 10.2406 6.62894 9.46333 6.14047L9.46546 6.13953L9.46334 6.13986ZM11.8305 5.7774L11.8326 5.77708C10.9827 4.57417 9.58162 3.78711 8.00003 3.78711C5.91221 3.78711 4.13896 5.15864 3.53324 7.04789L3.53496 7.04763L3.53324 7.04839C3.38871 7.49908 3.31036 7.97914 3.31036 8.47721C3.31036 8.62446 3.31799 8.76986 3.33133 8.91365L3.33142 8.91366C3.405 9.70555 3.67564 10.4411 4.09467 11.0701L4.09664 11.0707L4.09464 11.0703C4.93583 12.333 6.3723 13.1667 8.00002 13.1667C8.57371 13.1667 9.12358 13.0629 9.63208 12.8736L9.63044 12.8728L9.6321 12.8734C10.8289 12.4277 11.7955 11.5062 12.3025 10.3405L12.3026 10.3405C12.5511 9.76907 12.6897 9.13925 12.6897 8.47738C12.6897 7.47307 12.3722 6.54157 11.8326 5.77769L11.8305 5.7774Z" fill="white"/>
<path d="M12.4138 5.16636C13.0222 5.16636 13.5172 4.67135 13.5172 4.06291C13.5172 3.45447 13.0222 2.95947 12.4138 2.95947C11.8054 2.95947 11.3104 3.45447 11.3104 4.06291C11.3104 4.67135 11.8054 5.16636 12.4138 5.16636Z" fill="white"/>
<path fill-rule="evenodd" clip-rule="evenodd" d="M6.25769 2.13221L6.25783 2.13214L6.25766 2.13224H9.66397L9.66434 2.13205H12.4138C13.4785 2.13205 14.3448 2.99834 14.3448 4.06309V5.39249L14.3449 5.39249L14.3448 5.39251V10.6648L14.3453 10.6649L14.3448 10.665V12.8909C14.3448 13.4113 14.1376 13.8838 13.8018 14.2314L13.8017 14.2314C13.4503 14.5951 12.9582 14.8219 12.4138 14.8219H8.32631L8.32753 14.8224L8.32631 14.8221H3.58622C2.52147 14.8221 1.65519 13.9558 1.65519 12.8911V11.8325L1.65466 11.8319L1.65519 11.8321V10.276V10.2758V8.64708L1.6548 8.64694L1.65519 8.647V7.33604V7.33581V6.09486V6.09473V4.20752L1.65413 4.20762L1.65519 4.20714V4.06324C1.65519 2.99849 2.52147 2.13221 3.58622 2.13221H6.25769ZM0 4.95374L0.000806265 4.95297L0 4.95333V4.06327C0 3.87377 0.0149062 3.68771 0.0433437 3.50605H0.0433502C0.311819 1.7923 1.79829 0.477051 3.58623 0.477051H6.40809H9.92912H12.4138C12.5901 0.477051 12.7634 0.490068 12.933 0.514761L12.9333 0.514648C14.6654 0.767055 16 2.26205 16 4.06309V5.13905L16 10.928L15.9994 10.9279L16 10.9282V12.8909C16 13.5808 15.804 14.2257 15.4651 14.7732L15.465 14.7732C14.8324 15.7949 13.7013 16.4771 12.4138 16.4771H12.0197L12.0189 16.4767L12.0197 16.4773H5.49569L5.49569 16.4773H3.58622C1.67863 16.4773 0.114348 14.9801 0.00619125 13.0991L0.0061875 13.0991C0.00225 13.0302 0 12.9609 0 12.8911V11.0906L0.000480692 11.0906L0 11.0903V9.73705V9.73682V8.38386L0.000360648 8.38384L0 8.38378V7.58951V7.58928V6.91377V6.91363V4.95374Z" fill="white"/>
</g>
<defs>
<clipPath id="clip0">
<rect width="16" height="16" fill="white" transform="translate(0 0.477051)"/>
</clipPath>
</defs>
</svg>
