<svg width="16" height="17" viewBox="0 0 16 17" fill="none" xmlns="http://www.w3.org/2000/svg">
<g clip-path="url(#clip0)">
<path d="M7.82881 13.0034H8.78488C8.78488 13.0034 9.0739 12.9714 9.22091 12.8123C9.35692 12.6663 9.35192 12.3923 9.35192 12.3923C9.35192 12.3923 9.33292 11.1092 9.92896 10.9202C10.516 10.7342 11.2701 12.1603 12.0691 12.7093C12.6732 13.1244 13.1322 13.0334 13.1322 13.0334L15.2694 13.0034C15.2694 13.0034 16.3874 12.9344 15.8574 12.0553C15.8144 11.9833 15.5484 11.4052 14.2683 10.2172C12.9282 8.97306 13.1082 9.17507 14.7223 7.02391C15.7054 5.71382 16.0984 4.91376 15.9754 4.57173C15.8584 4.24571 15.1353 4.33171 15.1353 4.33171L12.7312 4.34571C12.7312 4.34571 12.5532 4.32171 12.4201 4.40072C12.2911 4.47872 12.2081 4.65874 12.2081 4.65874C12.2081 4.65874 11.8271 5.67281 11.3191 6.53488C10.248 8.35401 9.81895 8.45002 9.64394 8.33701C9.23691 8.07399 9.33892 7.27893 9.33892 6.71489C9.33892 4.95176 9.60594 4.2167 8.81788 4.02669C8.55586 3.96369 8.36384 3.92168 7.6948 3.91468C6.83673 3.90568 6.10968 3.91768 5.69865 4.1187C5.42463 4.25271 5.21361 4.55173 5.34262 4.56873C5.50163 4.58973 5.86166 4.66574 6.05267 4.92576C6.29969 5.26078 6.29069 6.01484 6.29069 6.01484C6.29069 6.01484 6.4327 8.08999 5.95967 8.34801C5.63464 8.52503 5.18961 8.164 4.23454 6.51288C3.7455 5.66781 3.37547 4.73274 3.37547 4.73274C3.37547 4.73274 3.30447 4.55873 3.17746 4.46572C3.02345 4.35272 2.80743 4.31671 2.80743 4.31671L0.521262 4.33071C0.521262 4.33071 0.178237 4.34071 0.0522271 4.48973C-0.0597812 4.62274 0.0432265 4.89676 0.0432265 4.89676C0.0432265 4.89676 1.83336 9.08407 3.85951 11.1952C5.71865 13.1304 7.82881 13.0034 7.82881 13.0034Z" fill="white"/>
</g>
<defs>
<clipPath id="clip0">
<rect width="16" height="16" fill="white" transform="translate(0 0.477051)"/>
</clipPath>
</defs>
</svg>
