<svg width="64" height="61" viewBox="0 0 64 61" fill="none" xmlns="http://www.w3.org/2000/svg">
<path d="M50.3525 11.7501C50.3525 7.40056 47.5062 0.500061 39.8687 0.500061C36.7307 0.500061 34.0911 1.97944 32 4.90369C29.9088 1.97944 27.2691 0.500061 24.1312 0.500061C16.4936 0.500061 13.6475 7.40056 13.6475 11.7501C13.6475 19.2492 19.5002 23.9401 27.4958 30.7772C28.6707 31.7817 29.8856 32.8206 31.1808 33.9443C31.4158 34.1482 31.7078 34.2501 32 34.2501C32.2921 34.2501 32.5841 34.1482 32.8191 33.9443C34.1143 32.8206 35.3292 31.7817 36.5041 30.7772C44.8748 23.6193 50.3525 19.0907 50.3525 11.7501ZM32 31.3471C31.0011 30.4851 30.0485 29.6704 29.1206 28.8769C20.7553 21.7241 16.1475 17.7838 16.1475 11.7501C16.1475 7.65719 18.8251 3.00006 24.1312 3.00006C26.9003 3.00006 29.1155 4.59006 30.9032 7.86081C31.1223 8.26181 31.543 8.51131 32 8.51131C32.457 8.51131 32.8776 8.26181 33.0967 7.86081C34.8845 4.59006 37.0996 3.00006 39.8687 3.00006C45.1007 3.00006 47.8525 7.58806 47.8525 11.7501C47.8525 17.7838 43.2446 21.7241 34.8793 28.8771C33.9515 29.6704 32.9988 30.4851 32 31.3471Z" fill="#3C86F4"/>
<path d="M8.98225 49.5143L15 52.5227V59.2501C15 59.9403 15.5597 60.5001 16.25 60.5001H29.5C30.1903 60.5001 30.75 59.9403 30.75 59.2501V42.9313C30.75 39.1016 27.8771 35.9257 24.0769 35.5447L23.9746 35.5337C21.775 35.3132 17.8802 33.8087 16.3424 32.2709L13.5351 29.4648C12.5905 28.5203 11.3351 28.0001 10 28.0001V18.0001C10 15.2431 7.757 13.0001 5 13.0001C2.243 13.0001 0 15.2431 0 18.0001V34.9801C0 41.1318 3.47475 46.7599 8.98225 49.5143ZM2.5 18.0001C2.5 16.6216 3.6215 15.5001 5 15.5001C6.3785 15.5001 7.5 16.6216 7.5 18.0001V28.6702C5.9755 29.5517 5 31.1952 5 33.0001C5 34.3352 5.52025 35.5906 6.46488 36.5351L12.8661 42.9376C13.3541 43.4258 14.1456 43.4258 14.6339 42.9377C15.122 42.4497 15.1221 41.6582 14.634 41.1699L8.23275 34.7673C7.76013 34.2949 7.5 33.6673 7.5 33.0001C7.5 31.9421 8.16963 30.9946 9.1665 30.6424C9.16663 30.6424 9.16687 30.6423 9.167 30.6422C9.16725 30.6421 9.16763 30.6421 9.16788 30.6419C10.0301 30.3359 11.0529 30.5182 11.7675 31.2329L14.5747 34.0391C17.473 36.9373 23.8051 38.0278 23.8178 38.0313C26.3445 38.2846 28.2499 40.3912 28.2499 42.9313V58.0001H17.4999V51.7501C17.4999 51.2766 17.2322 50.8437 16.8089 50.6321L10.1003 47.2783C5.41238 44.9337 2.5 40.2213 2.5 34.9801V18.0001Z" fill="#3C86F4"/>
<path d="M57.375 47.7501C58.0654 47.7501 58.625 47.1904 58.625 46.5001C58.625 45.8097 58.0654 45.2501 57.375 45.2501C56.6846 45.2501 56.125 45.8097 56.125 46.5001C56.125 47.1904 56.6846 47.7501 57.375 47.7501Z" fill="#3C86F4"/>
<path d="M59 13.0001C56.243 13.0001 54 15.2431 54 18.0001V28.0001C52.6649 28.0001 51.4095 28.5203 50.4651 29.4648L47.6574 32.2712C46.1198 33.8088 42.225 35.3133 40.0156 35.5347L39.9329 35.5437C36.1229 35.9257 33.25 39.1017 33.25 42.9313V59.2501C33.25 59.9403 33.8098 60.5001 34.5 60.5001H47.75C48.4403 60.5001 49 59.9403 49 59.2501V52.5227L53.0913 50.4774C53.7086 50.1687 53.959 49.4179 53.6504 48.8004C53.3416 48.1831 52.5907 47.9324 51.9734 48.2413L47.191 50.6321C46.7676 50.8437 46.5 51.2766 46.5 51.7501V58.0001H35.75V42.9313C35.75 40.3912 37.6554 38.2846 40.1919 38.0303L40.2746 38.0213C42.986 37.7494 47.4754 35.9887 49.4249 34.0392L52.2326 31.2328C52.9492 30.5159 53.974 30.3376 54.832 30.6419C54.8323 30.6421 54.8326 30.6421 54.8329 30.6422C54.833 30.6422 54.8332 30.6423 54.8334 30.6424C55.8304 30.9946 56.5 31.9421 56.5 33.0001C56.5 33.6673 56.2399 34.2949 55.7674 34.7676L49.3661 41.1701C48.878 41.6582 48.8781 42.4497 49.3662 42.9378C49.8541 43.4259 50.6459 43.4259 51.134 42.9377L57.5353 36.5353C58.4798 35.5906 59 34.3352 59 33.0001C59 31.1952 58.0245 29.5517 56.5 28.6702V18.0001C56.5 16.6216 57.6215 15.5001 59 15.5001C60.3785 15.5001 61.5 16.6216 61.5 18.0001V34.9801C61.5 37.2671 60.9229 39.5376 59.8309 41.5461C59.501 42.1527 59.7254 42.9116 60.332 43.2413C60.9384 43.5711 61.6976 43.3469 62.0272 42.7402C63.3179 40.3663 64 37.6829 64 34.9801V18.0001C64 15.2431 61.757 13.0001 59 13.0001Z" fill="#3C86F4"/>
</svg>
